<?xml version="1.0" standalone="no"?>
<!DOCTYPE svg PUBLIC "-//W3C//DTD SVG 1.1//EN" "http://www.w3.org/Graphics/SVG/1.1/DTD/svg11.dtd" >
<svg xmlns="http://www.w3.org/2000/svg" xmlns:xlink="http://www.w3.org/1999/xlink" version="1.1">
<metadata>
Created by FontForge 20170731 at Thu Feb 27 23:09:23 2020
 By Aleksey,,,
Copyright (c) 2016 by MCF. All rights reserved.
</metadata>
<defs>
<font id="PyidaungsuBook" horiz-adv-x="2" >
  <font-face 
    font-family="Pyidaungsu Book"
    font-weight="400"
    font-stretch="normal"
    units-per-em="2048"
    panose-1="2 11 5 2 4 2 4 2 2 3"
    ascent="1638"
    descent="-410"
    bbox="-2096 -947.333 4242 1957"
    underline-thickness="119"
    underline-position="-354"
    unicode-range="U+0020-109F"
  />
<missing-glyph horiz-adv-x="978" 
d="M89 -11v1364h793v-1364h-793zM158 58h655v1226h-655v-1226zM300 1079q34 30 60 45q51 30 110 30q90 0 146 -47.5t56 -127.5q0 -48 -23 -96.5t-82 -124.5q-59 -74 -92 -121t-33 -88q0 -34 26 -135h-52q-36 100 -36 149q0 74 76.5 207t76.5 200q0 49 -28 76.5t-77 27.5
q-33 0 -60 -14q-23 -13 -68 -52v71zM362 320l54 55q14 12 26 12q14 0 29 -13l52 -57q12 -14 12 -26q0 -14 -12 -28l-53 -59q-16 -16 -28 -16q-15 0 -26 14l-58 66q-9 12 -9 24q0 13 13 28z" />
    <glyph glyph-name="aa.alt.atha" unicode="&#x102b;&#x103a;" horiz-adv-x="614" 
d="M796 1595q0 -76 -81 -76q-56 0 -70 68q-13 78 -68 120q-70 54 -144 54q-72 0 -140 -54.5t-68 -111.5v-131l10 -1456q-5 -80 -78 -78q-88 0 -88 78v1587q0 70 -67.5 118t-144.5 48q-67 0 -139.5 -52t-72.5 -114q0 -38 -29 -59l-43 -15q-79 0 -79 74q0 136 112 227.5
t251 91.5q185 0 289 -134q46 54 119 94t168 40q139 0 251 -91.5t112 -227.5z" />
    <glyph glyph-name="asat.asat.lig" unicode="&#x103a;&#x103a;" 
d="M-349 1515q0 -62 -72 -76q-60 0 -60 57t-65 92.5t-118 35.5q-141 0 -164 -132q0 -123 101 -213q42 -39 131 -83l88 -44q30 -14 30 -56q0 -61 -71 -73l-32 11l-110 56q-156 84 -222 205q-48 87 -48 215q19 112 102 180t195 68q115 0 206 -66t109 -177zM-1057 1601
q-2 49 6 86t28 76q18 24 44 51t56 46.5t61.5 31.5t64.5 19q29 7 59 8.5t62 0.5q49 -1 102 -10t105.5 -29.5t102 -55t89.5 -84.5q25 -33 50.5 -71t45.5 -88q8 -46 3.5 -71t-26.5 -39.5t-46.5 -10t-48.5 34.5q-16 33 -29 65.5t-32 56.5q-32 44 -80 77t-104 57t-119.5 32
t-121 -2.5t-97.5 -36.5t-67 -65q-12 -27 -14.5 -42t-20.5 -54z" />
    <glyph glyph-name="pa.ssa.sub" unicode="&#x1039;&#x1051;" 
d="M-261 -438q0 -165 -124.5 -268.5t-288.5 -103.5q-167 0 -288.5 102.5t-121.5 269.5q0 213 216 342l35 11q62 0 76 -80q0 -34 -40 -57q-136 -85 -136 -216q0 -102 78.5 -162.5t180.5 -60.5q109 0 185.5 57.5t76.5 165.5q0 133 -136 213q-40 14 -40 59q0 73 73 85l32 -11
q222 -116 222 -346zM-516 -423q0 -75 -47 -123.5t-121 -48.5q-69 0 -118.5 52t-49.5 118q0 71 47.5 118.5t120.5 47.5q67 0 117.5 -46.5t50.5 -117.5zM-640 -427q0 40 -44 42q-42 0 -42 -40t43 -47q32 0 43 45z" />
    <glyph glyph-name="ga.sha.sub" unicode="&#x1039;&#x1050;" 
d="M-266 -459q0 -193 -158 -320l-35 -16q-54 0 -72 79q0 27 12 38q106 87 106 223q7 45 -26 86l-37 45q-68 67 -198 67q-107 0 -178 -46q-65 -61 -65 -156q0 -136 97 -217l13 -17l5 -19q0 -23 -22 -51.5t-46 -31.5q-29 0 -47 17q-151 136 -151 323q0 71 44 147
q55 127 208 177q62 21 142 21q156 0 288 -97q120 -120 120 -252zM-516 -463q0 -75 -47 -123.5t-121 -48.5q-69 0 -118.5 52t-49.5 118q0 71 47.5 118.5t120.5 47.5q67 0 117.5 -46.5t50.5 -117.5zM-640 -467q0 40 -44 42q-42 0 -42 -40t43 -47q32 0 43 45z" />
    <glyph glyph-name="mon.nga.sub" unicode="&#x1039;&#x105a;" 
d="M-795 -347q20 -17 26.5 -35.5t0 -35.5t-25 -26.5t-46.5 -6.5q-29 9 -47 25.5t-36 35.5q-50 55 -57 107.5t14 96.5t64 77.5t92.5 51.5t100 19t88.5 -20q59 -34 101 -69t60.5 -78t10.5 -95t-48 -120q-11 -18 -29 -43t-35.5 -52.5t-32.5 -56t-20 -54t2 -48t29 -37.5
q32 0 59.5 -16t34.5 -55q-37 -47 -79.5 -47.5t-80 25.5t-63.5 71t-29 93q-2 36 14 73t38.5 72t45.5 67.5t36 58.5q8 14 18.5 34t16.5 40t5 38.5t-11 30.5q-21 14 -41.5 29.5t-41.5 25.5t-44.5 13.5t-52.5 -5.5q-36 -11 -60.5 -27.5t-34.5 -36t-5.5 -42.5t28.5 -48
q9 -8 16 -17t19 -13z" />
    <glyph glyph-name="mon.jha.sub" unicode="&#x1039;&#x105b;" horiz-adv-x="293" 
d="M-595 -593q-65 0 -126 48t-61 114l4 39q22 46 76 71t97 25q105 0 173 -68q2 19 -17 41q-94 87 -213 87q-95 0 -165 -64q-31 -20 -55 -71q-15 -38 -21 -87q0 -52 13 -81q28 -77 138 -117q61 -17 104 -17q82 0 121 30l33 13q27 0 46.5 -23t19.5 -45q0 -28 -26 -40
q-81 -64 -202 -64q-72 0 -141 24q-52 18 -87 43q-38 -38 -109 -57q-39 -5 -74 12t-77 56l-77 86l-9 38q2 49 51 61q40 0 55 -18l69 -76q7 -10 57 -40q29 22 27 21q-71 87 -71 199q0 145 109 244t271 99q149 0 269 -92q82 -65 82 -183l-18 -60l321 -161v1569q0 40 29 59
l42 15q78 0 78 -74v-1686q0 -71 -97 -77l-475 236q-50 -29 -164 -29zM-495 -470q-12 13 -32 31l-40 18l-37 4q-45 3 -53 -18q18 -35 68 -37l68 -2q22 0 26 4z" />
    <glyph glyph-name="bba.sub" unicode="&#x1039;&#x105c;" 
d="M-253 -391q0 -175 -120 -297t-294 -122q-173 0 -295 123t-122 296q0 176 119.5 299t297.5 123q170 0 292 -123.5t122 -298.5zM-404 -391q0 115 -76 193t-187 78q-118 0 -192 -76t-74 -195q0 -111 77 -191.5t189 -80.5q111 0 187 78.5t76 193.5zM-498 -385q0 -77 -49 -126
t-126 -49q-70 0 -121 51t-51 124q0 75 49.5 123t122.5 48q72 0 123.5 -49t51.5 -122zM-626 -384q0 40 -47 43q-44 0 -44 -44q0 -39 45 -46q35 0 46 47z" />
    <glyph glyph-name="sg.eu.asat" unicode="&#x1062;&#x103a;" horiz-adv-x="537" 
d="M520 1641q0 -69 -80 -85q-67 0 -67 64t-74 104.5t-134 40.5q-161 0 -188 -150q0 -140 115 -243q48 -44 149 -94l99 -49q34 -16 34 -62q0 -68 -79 -82l-36 13l-124 63q-177 95 -251 231q-54 98 -54 243q21 126 114.5 202.5t220.5 76.5q129 0 232 -74.5t123 -198.5z
M-71 935q0 77 74 77h300q72 0 72 -77v-882q0 -72 -72 -72q-75 0 -75 72v810h-225q-74 0 -74 72z" />
    <glyph glyph-name="shan.ka.sub" unicode="&#x1039;&#x1075;" 
d="M-1072 -408l-3 29q0 15 2 31t4 37q13 52 43 94q28 48 74 86q121 103 288 103q164 0 288.5 -103.5t124.5 -268.5q0 -230 -222 -346l-32 -11q-73 12 -73 85q0 45 40 59q136 80 136 213q0 108 -76.5 165.5t-185.5 57.5q-102 0 -182 -62q-14 -8 -26 -25q-20 -28 -25 -33
q-25 -43 -26 -97l9 -14q35 -16 59 -32t43 -36q34 -35 51.5 -73t12.5 -79q-9 -62 -42 -99q-69 -65 -124 -62l-36 2q-31 2 -59 15t-49 38q-45 48 -47 112q8 74 79 67q73 -9 66 -78q-1 -8 27 -11l11 2q16 8 21.5 13.5t6.5 9.5q-2 12 -8.5 24t-14.5 19l-93 57q-27 28 -44 56
t-18 55z" />
    <glyph glyph-name="shan.kha.sub" unicode="&#x1039;&#x1076;" horiz-adv-x="5" 
d="M-669 -36q74 0 137.5 -26t120.5 -80q53 -56 82 -125.5t29 -149.5q0 -156 -113 -269q-113 -114 -271 -114q-177 0 -293 134l-35 52q-9 13 -18.5 35t-22.5 56q0 46 21 77q114 108 247 108q61 0 175 -45l55 -49q38 -44 72 -100q10 13 22 47.5t12 67.5q0 105 -67 169
q-62 63 -154 66q-11 -5 -28.5 -15t-39.5 -21q-45 -25 -93 -46t-100 -21q-13 0 -26.5 1.5t-28.5 5.5q-23 8 -41 23t-30 34.5t-18 42t-6 45.5q0 27 7.5 53.5t23 48.5t40 37.5t56.5 21.5q41 5 63 -18.5t22 -51.5q0 -23 -15.5 -45t-49.5 -21l-21 3l-5 -20q-3 -18 7.5 -25.5
t22.5 -0.5q73 38 98.5 50.5t51.5 24.5q12 6 19.5 10t14.5 7l14 6t17 8zM-684 -651q43 0 82 22q-68 106 -112 127q-18 5 -38.5 8.5t-37.5 3.5q-64 0 -106 -37q0 3 4 -2t10.5 -13.5t18.5 -21.5q66 -87 179 -87z" />
    <glyph glyph-name="shan.ca.sub" unicode="&#x1039;&#x1078;" 
d="M-1901 -449q0 155 131.5 261.5t289.5 106.5q151 0 289 -103q37 -28 48 -51q105 150 339 150q165 0 285 -92q129 -105 129 -267q0 -167 -123.5 -266.5t-290.5 -99.5q-170 0 -290.5 103.5t-120.5 273.5q-19 91 -93 146t-170 55q-103 0 -183 -58q-89 -64 -89 -159
q0 -72 76.5 -143t226.5 -71q105 -16 105 -74q0 -73 -97 -73q-75 0 -167 23q-295 76 -295 338zM-1066 -420q34 -243 262 -243q100 0 177 58q84 62 84 161q0 98 -81 159q-73 49 -180 49q-109 0 -180 -53t-82 -131z" />
    <glyph glyph-name="shan.na.sub" unicode="&#x1039;&#x107c;" horiz-adv-x="13" 
d="M-1763 -511q23 27 60 45.5t82 31t96 20t101 11t98 5t87 1.5h22q1 7 -2 17q-9 81 -64 134q-65 68 -168 68q-111 0 -183 -83q-6 -15 -21 -27t-38 -14q-79 0 -79 72q0 40 42 81.5t107 77.5q37 17 83 29t89 12q159 0 271 -113q12 -13 23.5 -27t11.5 -15q2 3 13 16l22 26
q113 113 274 113q43 0 89 -12t83 -29q71 -38 111 -78t40 -81q0 -72 -80 -72q-53 4 -62 44q-35 38 -81 59t-100 21q-101 0 -169 -68q-26 -27 -42 -61t-22 -70q-1 -12 -2 -16.5t-1 -5.5q25 0 75.5 -1t105.5 -5t111.5 -11t106.5 -19.5t89 -30.5t59 -45q11 -22 16 -38t5 -33
q0 -19 -7.5 -36t-22.5 -41q-104 -140 -302 -140q-161 0 -274 113l-22 26t-13 16q-1 -1 -12 -14.5t-23 -27.5q-112 -113 -271 -113q-99 0 -174.5 34.5t-127.5 101.5q-13 19 -21 39.5t-8 42.5q0 30 19 70zM-836 -650q62 0 107 20t64 45q-17 10 -68 20.5t-110.5 17t-119 9.5
t-78.5 3l41 -44q71 -71 164 -71zM-1256 -539q-21 -1 -77.5 -3t-114 -8t-107.5 -15.5t-68 -20.5q42 -64 172 -64q93 0 162 70z" />
    <glyph glyph-name="shan.pha.sub" unicode="&#x1039;&#x107d;" 
d="M-1527 -603q24 -19 48.5 -28.5t46.5 -11.5q33 3 54.5 6t39 7t35 9t43.5 14q12 4 26 9.5t28 12.5l-6 -4q-17 31 -29 77t-12 95q0 162 111 271q113 109 270 109q89 0 164 -34.5t133 -99.5q11 -12 18 -38q0 -30 -28 -57q-10 -8 -21 -12t-28 -9q-14 4 -23 8t-19 11
q-76 91 -196 91q-103 0 -171 -68q-70 -66 -70 -172q0 -70 29 -116q26 11 62.5 24t71 24t68.5 17.5t63 8.5q9 1 19 1.5t18 0.5q47 0 84 -11t85 -34l38 -26q35 -41 30 -66q0 -28 -24 -66q-98 -141 -303 -141q-147 0 -254 101q-17 -7 -41 -16.5t-47 -17.5q-30 -10 -50.5 -17
t-39 -11.5t-35.5 -7.5t-37 -6q-28 -6 -57 -6q-95 0 -179 64q-119 85 -135 208q0 53 5.5 91.5t31.5 68.5q4 5 11 13.5t18 16.5l13 12l104 48q10 7 18 20.5t11 29.5q0 6 -4.5 12t-20.5 16l-18 3q-35 0 -35 -11q0 -69 -69 -69t-69 73q9 62 59 104q49 44 112 42l38 -2
q26 -1 55.5 -20.5t60.5 -54.5q31 -43 31 -101q0 -42 -20.5 -79t-60.5 -69q-21 -16 -42.5 -28t-40.5 -18l-26 -9l-22 -27q-2 -13 -6 -24v-4q7 -33 29 -66.5t57 -60.5zM-722 -626q7 7 11 11.5l4 4.5l1 -1q-22 11 -35 15t-33 4q-17 0 -45 -3q-47 -5 -91 -18.5t-68 -22.5
q39 -25 105 -25q24 2 49 5t49 5z" />
    <glyph glyph-name="ha.3" unicode="&#x1081;&#x102f;" horiz-adv-x="1348" 
d="M1080 418q0 -76 -79 -76q-72 0 -72 76v41q0 197 -107 307.5t-267 110.5q-125 0 -237.5 -89t-129.5 -201q231 0 336 -113q129 -141 129 -313q0 -184 -98 -186q-218 -4 -368 150.5t-150 378.5t152 375t366 151q217 0 374 -155q80 -73 117 -192q34 -101 34 -224v-41z
M501 129q0 78 -26 130q-51 183 -287 183q0 -49 35 -103q61 -111 182 -186q36 -24 96 -24zM401 -741q-19 -75 -92 -55l-235 58q-66 18 -49 92q19 69 86 53l165 -42l129 509q18 70 88 57q73 -18 55 -93zM622 -146q0 77 75 77q71 -5 72 -77v-505h170q70 0 70 -72q0 -76 -70 -76
h-242q-75 0 -75 76v577z" />
    <glyph glyph-name="ha.2" unicode="&#x1081;&#x1030;" horiz-adv-x="1348" 
d="M1080 418q0 -76 -79 -76q-72 0 -72 76v41q0 197 -107 307.5t-267 110.5q-125 0 -237.5 -89t-129.5 -201q231 0 336 -113q129 -141 129 -313q0 -184 -98 -186q-218 -4 -368 150.5t-150 378.5t152 375t366 151q217 0 374 -155q80 -73 117 -192q34 -101 34 -224v-41z
M501 129q0 78 -26 130q-51 183 -287 183q0 -49 35 -103q61 -111 182 -186q36 -24 96 -24zM731 -723q0 -36 -22 -56t-52 -20q-77 0 -77 76v577q1 75 77 77q74 0 74 -77v-577zM371 -741q-19 -75 -92 -55l-235 58q-66 18 -49 92q19 69 86 53l165 -42l129 509q18 70 88 57
q73 -18 55 -93zM842 -146q0 77 75 77q71 -5 72 -77v-505h170q70 0 70 -72q0 -76 -70 -76h-242q-75 0 -75 76v577z" />
    <glyph glyph-name="ha.1" unicode="&#x1081;&#x103d;" horiz-adv-x="1247" 
d="M1094 418q0 -76 -79 -76q-72 0 -72 76v41q0 197 -107 307.5t-267 110.5q-125 0 -237.5 -89t-129.5 -201q231 0 336 -113q129 -141 129 -313q0 -184 -98 -186q-218 -4 -368 150.5t-150 378.5t152 375t366 151q217 0 374 -155q80 -73 117 -192q34 -101 34 -224v-41z
M515 129q0 78 -26 130q-51 183 -287 183q0 -49 35 -103q61 -111 182 -186q36 -24 96 -24zM401 -741q-19 -75 -92 -55l-235 58q-66 18 -49 92q19 69 86 53l165 -42l129 509q18 70 88 57q73 -18 55 -93zM1205 -457q0 -140 -96 -238t-236 -98q-138 0 -236 98.5t-98 237.5
q0 142 95.5 240.5t238.5 98.5q137 0 234.5 -99t97.5 -240zM1066 -457q0 85 -55.5 141.5t-137.5 56.5q-87 0 -140 -55.5t-53 -142.5q0 -81 55.5 -140t137.5 -59t137.5 57.5t55.5 141.5z" />
    <glyph glyph-name="ha.4" unicode="&#x1081;&#x1082;" horiz-adv-x="1265" 
d="M1090 418q0 -76 -79 -76q-72 0 -72 76v41q0 197 -107 307.5t-267 110.5q-125 0 -237.5 -89t-129.5 -201q231 0 336 -113q129 -141 129 -313q0 -184 -98 -186q-218 -4 -368 150.5t-150 378.5t152 375t366 151q217 0 374 -155q80 -73 117 -192q34 -101 34 -224v-41z
M511 129q0 78 -26 130q-51 183 -287 183q0 -49 35 -103q61 -111 182 -186q36 -24 96 -24zM401 -741q-19 -75 -92 -55l-235 58q-66 18 -49 92q19 69 86 53l165 -42l129 509q18 70 88 57q73 -18 55 -93zM1038 -788q-223 -43 -343.5 48.5t-149.5 232.5q-30 143 47.5 263
t238.5 147q202 33 312 -75q42 -54 -12 -87q-47 -30 -94 2q-56 47 -181 27q-97 -14 -141.5 -91t-26.5 -162q19 -93 87 -149t233 -24q172 65 253 159q38 49 104 28q48 -32 20 -86q-88 -149 -347 -233z" />
    <glyph glyph-name="i.ai.vow" unicode="&#x1032;&#x102d;" 
d="M-160 1491q0 -175 -121 -297t-296 -122q-172 0 -293 123t-121 296q0 176 117.5 299.5t296.5 123.5q173 0 295 -126.5t122 -296.5zM-313 1491q0 109 -77 191.5t-187 82.5q-115 0 -190 -79.5t-75 -194.5q0 -111 78 -190.5t187 -79.5q110 0 187 79.5t77 190.5zM-970 1127
q-13 -26 -45 -37.5t-58 1.5q-16 8 -37 36l-269 570q-17 28 2 64q13 26 44.5 37t54.5 -1q20 -11 36 -36l269 -567q17 -38 3 -67z" />
    <glyph glyph-name="ya.ha.med" unicode="&#x103b;&#x103e;" horiz-adv-x="307" 
d="M154 -725q0 -73 -96 -73l-535 138q-61 20 -55 83v357l-218 -384q-65 -104 -174 -132q-57 0 -101 25q-43 20 -94 71l-168 199l-11 45q0 72 81 79q30 0 55 -24l150 -192q8 -13 47 -46l27 -5l20 10q29 28 38 41l338 560q35 33 82 33q69 0 81 -69v-520l379 -98v1589
q0 74 77 77q77 0 77 -77v-1687z" />
    <glyph glyph-name="ya.wa.med" unicode="&#x103b;&#x103d;" horiz-adv-x="304" 
d="M-238 -394q0 -97 -30 -164l267 -69v1590q3 51 27.5 65t42.5 14q33 0 56 -20.5t26 -58.5v-1695q-4 -77 -101 -66l-411 108l5 3q-120 -123 -293 -123q-172 0 -293 122t-121 294q0 175 118.5 297t295.5 122q169 0 290 -122.5t121 -296.5zM-388 -394q0 114 -75.5 191.5
t-185.5 77.5q-117 0 -190.5 -75.5t-73.5 -193.5q0 -110 76.5 -190t187.5 -80q110 0 185.5 78t75.5 192z" />
    <glyph glyph-name="wa.ha.med" unicode="&#x103d;&#x103e;" 
d="M-409 -394q0 114 -75.5 191.5t-185.5 77.5q-117 0 -190.5 -75.5t-73.5 -193.5q0 -110 76.5 -190t187.5 -80q110 0 185.5 78t75.5 192zM-259 -394q0 -174 -119 -295t-292 -121q-172 0 -293 122q-101 103 -115 220l-12 -11q-67 -39 -166 -39q-55 0 -118 28q-40 19 -97 73
l24 168q99 -106 192 -118q27 0 81 25.5t63 46.5l90 133q24 32 56 66q118 121 295 121q169 0 290 -122.5t121 -296.5z" />
    <glyph glyph-name="lla.lla" unicode="&#x1020;&#x1039;&#x1020;" horiz-adv-x="1241" 
d="M741 -430q-15 -15 -25 -21.5t-20 -8.5t-22 0.5t-35 9.5q-2 5 -10.5 7t-21.5 4t-25 3t-17 1q-14 2 -29.5 3t-28.5 2t-25 -0.5t-22 -5t-14 -6l-4 -2.5q-4 -18 4 -22.5t38 -2.5h16t20.5 -0.5t21 -0.5h16.5q11 1 24.5 1.5t25.5 0.5q43 0 75 -12q14 -7 22 -13t10.5 -16
t3 -24.5t1.5 -37.5v-85q-8 -25 -19.5 -33.5t-34.5 -9.5q-26 -1 -45.5 7t-19.5 40l-1 70q2 0 -6 -1t-11 -1q-17 -2 -35.5 -3t-38.5 -1q-21 0 -41.5 2t-39.5 8q-23 4 -37 9t-24 15q-12 10 -21 20t-15 22t-10 26.5t-5 34.5q-1 16 3 30t11 29q5 9 15 20t29 26q21 11 36 17
t28.5 9.5t29 4.5t37.5 1l63 -2q52 -3 94.5 -18t69.5 -34q18 -15 17 -31t-8 -31zM1092 -600q0 -84 -55 -146.5t-141 -62.5h-446q-179 0 -271 92q-79 94 -79 262v398q0 76 73 76q23 0 54 -18q160 -148 338 -148q194 0 337 103l37 26v131q-132 -136 -374 -136q-214 0 -369 155
t-155 374q0 220 151 373t373 153q250 0 413 -187q27 -28 32 -63q0 -74 -76 -74q-30 0 -101 56q-80 68 -98 75q-80 40 -170 40q-162 0 -267.5 -104t-105.5 -269q0 -150 114 -263.5t259 -113.5q204 0 293 127l42 21l54 20q61 0 98.5 -15.5t37.5 -73.5v-265q0 -30 -35 -62
l-65 -48q-176 -129 -425 -129q-98 0 -171 23q-83 19 -142 58v-240l5 -107q0 -18 25 -50q31 -30 62.5 -42t105.5 -12h445q46 8 46 81l-8 6l-17 2q-17 0 -22 -5l-34 -9q-63 0 -82 85q0 84 145 84q127 0 163 -127z" />
    <glyph glyph-name="i.vow.anusvara" unicode="&#x102d;&#x1036;" horiz-adv-x="15" 
d="M-318 1499q0 -172 -118 -292t-289 -120q-170 0 -289.5 121t-119.5 291q0 172 116.5 293.5t292.5 121.5q169 0 288 -124.5t119 -290.5zM-467 1499q0 106 -75.5 187t-182.5 81q-113 0 -186 -78t-73 -190q0 -109 75.5 -187t183.5 -78q107 0 182.5 78t75.5 187zM-70 1667
q35 0 66.5 -13.5t55 -37t37 -55t13.5 -66.5t-13.5 -66.5t-37 -55t-55 -37t-66.5 -13.5t-66.5 13.5t-55 37t-37 55t-13.5 66.5t13.5 66.5t37 55t55 37t66.5 13.5zM-70 1446q20 0 34.5 14.5t14.5 34.5t-14.5 34.5t-34.5 14.5t-34.5 -14.5t-14.5 -34.5t14.5 -34.5t34.5 -14.5z
" />
    <glyph glyph-name="tawa.alt" unicode="&#x1039;&#x1010;&#x103d;" 
d="M-532 -421q20 12 28.5 16.5t20.5 11.5t32 9.5t42 4.5q40 5 76 -4t72.5 -27t52.5 -30q-1 -10 -1 2q0 92 -89 157q-79 55 -183 55q-96 0 -170 -55t-95 -146q0 -168 -120.5 -271.5t-288.5 -103.5q-167 0 -290.5 99.5t-123.5 266.5q0 162 129 267q120 92 285 92
q234 0 339 -149q11 20 48 51q138 100 289 100q158 0 289.5 -105.5t131.5 -257.5q0 -89 -32 -152q16 -35 22 -78t0 -90q-7 -44 -40 -81.5t-70 -59.5q-28 -15 -69.5 -27.5t-87 -17.5t-89.5 -2.5t-75 16.5q-24 12 -65.5 43.5t-72.5 99.5q-17 33 -20 70.5t3 75t19 72.5t27 65
q11 20 25 35t51 48zM-893 -410q-11 74 -82 128t-180 54q-107 0 -180 -51q-81 -59 -81 -157t84 -161q77 -58 177 -58q228 0 262 245zM-303 -540q-28 20 -49.5 26t-52.5 0q-29 -4 -44 -16q-24 -19 -46 -49.5t-27.5 -88.5t37.5 -101q16 -18 42 -28t55.5 -13.5t58.5 -1t50 10.5
q13 9 29.5 17.5t29.5 24.5q12 35 10 69.5t-15 63t-36.5 51t-41.5 35.5z" />
    <glyph glyph-name="ha.oe.u" unicode="&#x103e;&#x1072;&#x102f;" 
d="M-653 1093q-165 0 -268.5 124.5t-103.5 287.5q0 168 102.5 289.5t269.5 121.5q212 0 341 -215l12 -36q0 -62 -80 -77q-34 0 -57 40q-85 137 -216 137q-102 0 -162.5 -78.5t-60.5 -181.5q0 -108 57.5 -184.5t165.5 -76.5q133 0 213 135q14 41 59 41q72 0 85 -73l-12 -33
q-115 -221 -345 -221zM-732 -723q0 -76 -79 -76h-242q-74 0 -74 76q0 60 73 72h173v505q1 77 70 77q79 0 79 -77v-577zM-588 -146q0 77 75 77q71 -5 72 -77v-505h170q70 0 70 -72q0 -76 -70 -76h-242q-75 0 -75 76v577z" />
    <glyph glyph-name="ha.asat" unicode="&#x103e;&#x103a;" 
d="M-582 -723q0 -76 -79 -76h-242q-74 0 -74 76q0 60 73 72h173v605q1 77 70 77q79 0 79 -77v-677zM-296 1641q0 -69 -80 -85q-67 0 -67 64t-74 104.5t-134 40.5q-161 0 -188 -150q0 -140 115 -243q48 -44 149 -94l99 -49q34 -16 34 -62q0 -68 -79 -82l-36 13l-124 63
q-177 95 -251 231q-54 98 -54 243q21 126 114.5 202.5t220.5 76.5q129 0 232 -74.5t123 -198.5z" />
    <glyph glyph-name="aa.vow.anus" unicode="&#x1036;&#x102b;" horiz-adv-x="352" 
d="M214 8q0 -78 -80 -78q-71 0 -71 78v1587q0 74 -64.5 120t-143.5 46q-67 0 -139.5 -52t-72.5 -114q0 -38 -29 -59l-41 -15q-79 0 -79 74q0 136 117 232q103 87 244 87q143 0 247 -83q108 -95 108 -236zM-728 1608q44 0 82.5 -17t67 -45.5t45.5 -67t17 -82.5t-17 -82.5
t-45.5 -67t-67 -45.5t-82.5 -17t-82.5 17t-67 45.5t-45.5 67t-17 82.5t17 82.5t45.5 67t67 45.5t82.5 17zM-728 1308q37 0 62.5 25.5t25.5 62.5t-25.5 62.5t-62.5 25.5t-62.5 -25.5t-25.5 -62.5t25.5 -62.5t62.5 -25.5z" />
    <glyph glyph-name="aa.vow.ai" unicode="&#x1032;&#x102b;" horiz-adv-x="358" 
d="M214 8q0 -78 -80 -78q-71 0 -71 78v1587q0 74 -64.5 120t-143.5 46q-67 0 -139.5 -52t-72.5 -114q0 -38 -29 -59l-41 -15q-79 0 -79 74q0 136 117 232q103 87 244 87q143 0 247 -83q108 -95 108 -236zM-423 1330q0 -28 -22.5 -53t-52.5 -25q-19 0 -49 16l-499 383
q-28 17 -28 58q0 29 22.5 53t49.5 24q22 0 47 -15l499 -382q33 -27 33 -59z" />
    <glyph glyph-name="aa.ha.killer" unicode="&#x102c;&#x103e;&#x103a;" horiz-adv-x="1015" 
d="M769 510q0 -284 -227 -432q-159 -103 -318 -103q-61 0 -121 16l-40 14l-37 20q-63 21 -63 77q0 22 23 47t50 25q26 0 33 -8l83 -32q22 -7 70 -7q160 0 276.5 111.5t116.5 271.5q0 125 -64 219q-46 65 -132.5 107.5t-170.5 42.5q-111 0 -218 -65q-79 -60 -127 -137
l-94 -147q-19 -51 -69 -51q-72 0 -72 78q0 35 14 49l95 160q61 97 185.5 182t287.5 85q266 0 421 -224q98 -145 98 -299zM-396 1641q0 -69 -80 -85q-67 0 -67 64t-74 104.5t-134 40.5q-161 0 -188 -150q0 -140 115 -243q48 -44 149 -94l99 -49q34 -16 34 -62q0 -68 -79 -82
l-36 13l-124 63q-177 95 -251 231q-54 98 -54 243q21 126 114.5 202.5t220.5 76.5q129 0 232 -74.5t123 -198.5zM-702 -723q0 -76 -79 -76h-242q-74 0 -74 76q0 60 73 72h173v605q1 77 70 77q79 0 79 -77v-677z" />
    <glyph glyph-name="asat.anus" unicode="&#x103a;&#x1036;" 
d="M-464 1546q0 -70 -42.5 -115t-112.5 -45q-63 0 -108.5 48t-45.5 109q0 64 45 107.5t109 43.5q63 0 109 -41.5t46 -106.5zM-568 1543q0 44 -50 48q-44 0 -44 -46q0 -45 45 -52q39 0 49 50zM-296 1641q0 -69 -80 -85q-67 0 -67 64t-74 104.5t-134 40.5q-161 0 -188 -150
q0 -140 115 -243q48 -44 149 -94l99 -49q34 -16 34 -62q0 -68 -79 -82l-36 13l-124 63q-177 95 -251 231q-54 98 -54 243q21 126 114.5 202.5t220.5 76.5q129 0 232 -74.5t123 -198.5z" />
    <glyph glyph-name="shan.fa.u" unicode="&#x107e;&#x102f;" horiz-adv-x="1932" 
d="M453 155q49 5 80.5 9.5t57.5 10t51.5 13.5t62.5 21q24 8 51.5 19.5t44.5 18.5q-67 111 -67 259q0 222 151.5 371.5t371.5 149.5q247 0 408 -183q12 -12 19 -44q0 -29 -30 -59q-26 -16 -55 -23q-25 7 -45 20q-115 138 -297 138q-157 0 -264.5 -104.5t-107.5 -265.5
q0 -116 57 -199q43 18 95 38t103.5 36t100.5 26.5t93 13.5q43 3 77.5 1.5t67 -8.5t65 -20t72.5 -32l52 -36q40 -46 33 -73q0 -35 -29 -83q-132 -191 -415 -191q-211 0 -360 150q-31 -13 -67.5 -27.5t-71.5 -27.5q-42 -14 -71.5 -24t-55.5 -16.5t-50 -11t-53 -8.5
q-166 -36 -320 78q-163 119 -184 282q0 72 6.5 123t40.5 87q6 15 39 43l17 15l144 67q47 29 58 89q0 20 -10 34t-44 35l-28 5q-80 0 -80 -40q0 -75 -75 -75q-74 0 -74 76q11 81 75.5 136.5t145.5 53.5l53 -4q67 -2 149 -98q39 -53 39 -130q0 -108 -106 -192
q-60 -48 -113 -64l-46 -15l-37 -46l-11 -43v-14q19 -110 133 -199q77 -59 153 -63zM1488 185l44 51q-25 11 -47 22t-41.5 15.5t-44.5 4.5t-69 -4q-77 -8 -150.5 -32t-129.5 -48q82 -64 206 -64l144 14zM1202 -146q0 77 75 77q71 -5 72 -77v-505h170q70 0 70 -72
q0 -76 -70 -76h-242q-75 0 -75 76v577zM941 -741q-19 -75 -92 -55l-235 58q-66 18 -49 92q19 69 86 53l165 -42l129 509q18 70 88 57q73 -18 55 -93z" />
    <glyph glyph-name="shan.fa.uu" unicode="&#x107e;&#x1030;" horiz-adv-x="1948" 
d="M453 155q49 5 80.5 9.5t57.5 10t51.5 13.5t62.5 21q24 8 51.5 19.5t44.5 18.5q-67 111 -67 259q0 222 151.5 371.5t371.5 149.5q247 0 408 -183q12 -12 19 -44q0 -29 -30 -59q-26 -16 -55 -23q-25 7 -45 20q-115 138 -297 138q-157 0 -264.5 -104.5t-107.5 -265.5
q0 -116 57 -199q43 18 95 38t103.5 36t100.5 26.5t93 13.5q43 3 77.5 1.5t67 -8.5t65 -20t72.5 -32l52 -36q40 -46 33 -73q0 -35 -29 -83q-132 -191 -415 -191q-211 0 -360 150q-31 -13 -67.5 -27.5t-71.5 -27.5q-42 -14 -71.5 -24t-55.5 -16.5t-50 -11t-53 -8.5
q-166 -36 -320 78q-163 119 -184 282q0 72 6.5 123t40.5 87q6 15 39 43l17 15l144 67q47 29 58 89q0 20 -10 34t-44 35l-28 5q-80 0 -80 -40q0 -75 -75 -75q-74 0 -74 76q11 81 75.5 136.5t145.5 53.5l53 -4q67 -2 149 -98q39 -53 39 -130q0 -108 -106 -192
q-60 -48 -113 -64l-46 -15l-37 -46l-11 -43v-14q19 -110 133 -199q77 -59 153 -63zM1488 185l44 51q-25 11 -47 22t-41.5 15.5t-44.5 4.5t-69 -4q-77 -8 -150.5 -32t-129.5 -48q82 -64 206 -64l144 14zM1301 -723q0 -36 -22 -56t-52 -20q-77 0 -77 76v577q1 75 77 77
q74 0 74 -77v-577zM941 -741q-19 -75 -92 -55l-235 58q-66 18 -49 92q19 69 86 53l165 -42l129 509q18 70 88 57q73 -18 55 -93zM1412 -146q0 77 75 77q71 -5 72 -77v-505h170q70 0 70 -72q0 -76 -70 -76h-242q-75 0 -75 76v577z" />
    <glyph glyph-name="shan.ya.wa.med" unicode="&#x103b;&#x1082;" horiz-adv-x="305" 
d="M-507 -804q-230 -48 -354.5 54.5t-154.5 259.5q-30 160 49.5 294.5t245.5 164.5q209 37 323 -83l18 -33q11 -61 -65 -88q-33 -5 -64 28q-56 52 -186 30q-100 -16 -146 -103t-28 -184q20 -104 90.5 -167.5t241.5 -27.5q175 74 260 178q6 37 51 48q72 11 98 -56l-7 -35
q-23 -42 -36 -58l170 -45v1589q0 71 72 77q77 0 77 -77v-1683q0 -75 -96 -75l-352 92q-92 -59 -207 -100z" />
    <glyph glyph-name="ha.asat.u" unicode="&#x103e;&#x103a;&#x102f;" 
d="M-396 1641q0 -69 -80 -85q-67 0 -67 64t-74 104.5t-134 40.5q-161 0 -188 -150q0 -140 115 -243q48 -44 149 -94l99 -49q34 -16 34 -62q0 -68 -79 -82l-36 13l-124 63q-177 95 -251 231q-54 98 -54 243q21 126 114.5 202.5t220.5 76.5q129 0 232 -74.5t123 -198.5z
M-732 -723q0 -76 -79 -76h-242q-74 0 -74 76q0 60 73 72h173v505q1 77 70 77q79 0 79 -77v-577zM-588 -146q0 77 75 77q71 -5 72 -77v-505h170q70 0 70 -72q0 -76 -70 -76h-242q-75 0 -75 76v577z" />
    <glyph glyph-name="shan.aa.aukmyit" unicode="&#x1083;&#x1037;" horiz-adv-x="792" 
d="M228 890h-169q-70 0 -70 72q0 77 70 77h242q74 0 74 -77v-1470h169q71 0 71 -72q0 -77 -71 -77h-241q-75 0 -75 77v1470zM647 -58q39 0 73 -15t59.5 -40.5t40.5 -59.5t15 -73t-15 -73t-40.5 -59.5t-59.5 -40.5t-73 -15t-73 15t-59.5 40.5t-40.5 59.5t-15 73t15 73
t40.5 59.5t59.5 40.5t73 15zM647 -322q31 0 53.5 22.5t22.5 53.5t-22.5 53.5t-53.5 22.5t-53.5 -22.5t-22.5 -53.5t22.5 -53.5t53.5 -22.5z" />
    <glyph glyph-name="sg.eu.final.y" unicode="&#x1062;&#x1086;" horiz-adv-x="468" 
d="M308 62q0 -26 -13 -44q-24 -29 -60 -29q-29 0 -49.5 17t-20.5 56v792h-162q-70 0 -70 70q0 76 70 76h232q73 0 73 -76v-862zM309 1579q-8 -38 -26 -121q-21 -57 -50 -148q-28 -36 -47.5 -60t-45 -44.5t-65 -39.5t-215.5 -74q148 80 178 104.5t49 55t31 69t23 88.5
q-11 34 -28 37q-68 14 -105 74.5t-24 123.5q15 69 72 104.5t123 20.5q68 -14 106.5 -68t23.5 -122zM202 1608q0 21 -16 37t-38 16q-21 0 -36.5 -15.5t-15.5 -37.5t15.5 -37.5t36.5 -15.5q22 0 38 16t16 37z" />
    <glyph glyph-name="shan.aa.asat" unicode="&#x1083;&#x103a;" horiz-adv-x="631" 
d="M506 1641q0 -69 -80 -85q-67 0 -67 64t-74 104.5t-134 40.5q-161 0 -188 -150q0 -140 115 -243q48 -44 149 -94l99 -49q34 -16 34 -62q0 -68 -79 -82l-36 13l-124 63q-177 95 -251 231q-54 98 -54 243q21 126 114.5 202.5t220.5 76.5q129 0 232 -74.5t123 -198.5z
M225 890h-169q-70 0 -70 72q0 77 70 77h242q74 0 74 -77v-1470h169q71 0 71 -72q0 -77 -71 -77h-241q-75 0 -75 77v1470z" />
    <glyph glyph-name="ha.sub" unicode="&#x1039;&#x101f;" 
d="M-1154 -222q9 20 42 45q140 102 290 102q161 0 286.5 -103.5t125.5 -261.5q0 -157 -122.5 -260.5t-316.5 -103.5q-41 0 -78 14q-42 17 -50 76q3 42 21 55t48 18l60 -12q111 0 194 52q89 58 89 161q0 87 -68 145q-79 65 -189 65q-88 0 -187 -66q-51 -33 -68 -114
q3 -23 3 -49q0 -156 -118 -259t-284 -103q-164 0 -282 103t-118 259q0 97 54.5 186.5t155.5 149.5l34 9q29 0 52 -23t23 -54q0 -38 -40 -58q-63 -38 -97 -95.5t-34 -114.5q0 -92 69.5 -153.5t182.5 -61.5t183.5 60t70.5 155q0 60 -34 116t-97 91q-40 17 -40 61q0 30 21.5 55
t51.5 25l30 -10q85 -43 136 -101z" />
    <glyph glyph-name="ya.sub" unicode="&#x1039;&#x101a;" 
d="M-389 -441q0 -160 -123.5 -262.5t-287.5 -102.5q-151 0 -289 100q-37 29 -49 54q-108 -152 -334 -152q-165 0 -285 103q-129 106 -129 268q0 104 60 196.5t153 145.5l33 11q79 -12 79 -80q0 -40 -39 -59q-133 -74 -133 -214q0 -99 78.5 -160.5t182.5 -61.5
q119 0 191.5 61.5t72.5 154.5q0 149 -123 216q-41 24 -41 69q0 79 74 79l35 -14q200 -99 200 -343q14 -65 29 -98q27 -42 47 -57q91 -66 185 -66q117 0 194 65q65 56 65 147q0 97 -65 145q-83 72 -222 72l-26 -4q-94 0 -94 74q0 55 48 68l48 13q190 0 320 -88
q145 -108 145 -280z" />
    <glyph glyph-name="ka.sub.001" unicode="&#x1039;&#x1000;" horiz-adv-x="1627" 
d="M1547 -438q0 -171 -145 -280q-130 -88 -305 -88q-15 0 -63 13t-48 68q0 74 94 74l26 -4q139 0 222 72q65 48 65 145q0 91 -65 147q-77 65 -194 65q-94 0 -185 -66q-20 -15 -47 -57q-15 -33 -29 -98q0 -244 -200 -343l-35 -14q-74 0 -74 79q0 45 41 69q123 67 123 216
q0 93 -72.5 154.5t-191.5 61.5q-104 0 -182.5 -61.5t-78.5 -160.5q0 -140 133 -214q39 -19 39 -59q0 -68 -79 -80l-33 11q-93 53 -153 145.5t-60 196.5q0 162 129 268q120 103 285 103q226 0 334 -152q12 25 49 54q138 100 289 100q164 0 287.5 -102.5t123.5 -262.5z
M1039 198q23 16 44.5 34t39.5 40l66 -65q-39 -42 -82 -76zM1153 311q32 47 48 100l89 -36q-20 -52 -51 -100zM1126 766q-18 21 -39 39.5t-44 35.5l70 69q45 -33 82 -75zM1202 628q-17 55 -48 100l90 38q31 -48 49 -100zM897 135q27 6 53 16t51 24l37 -89q-47 -27 -103 -44z
M1005 865q-48 25 -104 39l38 94q27 -8 53 -18t50 -24zM1218 519q0 14 -1 28t-3 28h100q2 -14 3.5 -28t1.5 -28t-2 -27.5t-4 -27.5h-100q2 14 3.5 27.5t1.5 27.5zM800 123q14 0 27.5 1t27.5 3v-102q-27 -3 -55 -3q-15 0 -28.5 0.5t-27.5 1.5v102q27 -3 56 -3zM278 524
q0 13 0.5 26t1.5 25h102q-3 -24 -3 -51q0 -32 3 -60h-102q-2 14 -2 29v31zM800 917q-15 0 -28.5 -1t-27.5 -3v102q27 4 56 4q28 0 55 -4v-102q-14 2 -27.5 3t-27.5 1zM699 905q-27 -7 -53 -16t-52 -22l-38 93q25 13 51.5 22t52.5 17zM437 726q-14 -23 -25.5 -48t-19.5 -54
l-94 40q8 27 19.5 53t25.5 49zM553 843q-23 -16 -44.5 -34.5t-39.5 -39.5l-72 72q38 41 83 73zM595 168q27 -13 53.5 -21.5t52.5 -13.5l-39 -96q-26 7 -52.5 15.5t-52.5 21.5zM391 414q15 -58 43 -104l-96 -39q-26 45 -41 104zM467 265q18 -23 40 -41t45 -32l-74 -74
q-44 29 -84 74z" />
    <glyph glyph-name="kha.sub.001" unicode="&#x1039;&#x1001;" horiz-adv-x="1171" 
d="M977 -449q0 -154 -122 -257.5t-288 -103.5q-187 0 -312 127l-40 69q-9 23 -13 59l22 73q88 95 244 88q83 -1 133 -27q121 -54 174 -162q22 24 41 64l10 71q0 100 -77.5 156t-181.5 56q-126 0 -208 -82l-32 -20l-32 -7q-29 0 -52.5 20t-28.5 52q0 35 39 63
q144 125 314 125q166 0 288 -100.5t122 -263.5zM667 -648q-38 80 -114 108q-50 19 -93 17l-77 -2q-18 -5 -50 -31q23 -39 98.5 -73t134.5 -32l55 4q33 2 46 9zM811 198q23 16 44.5 34t39.5 40l66 -65q-39 -42 -82 -76zM925 311q32 47 48 100l89 -36q-20 -52 -51 -100z
M898 766q-18 21 -39 39.5t-44 35.5l70 69q45 -33 82 -75zM974 628q-17 55 -48 100l90 38q31 -48 49 -100zM669 135q27 6 53 16t51 24l37 -89q-47 -27 -103 -44zM777 865q-48 25 -104 39l38 94q27 -8 53 -18t50 -24zM990 519q0 14 -1 28t-3 28h100q2 -14 3.5 -28t1.5 -28
t-2 -27.5t-4 -27.5h-100q2 14 3.5 27.5t1.5 27.5zM572 123q14 0 27.5 1t27.5 3v-102q-27 -3 -55 -3q-15 0 -28.5 0.5t-27.5 1.5v102q27 -3 56 -3zM50 524q0 13 0.5 26t1.5 25h102q-3 -24 -3 -51q0 -32 3 -60h-102q-2 14 -2 29v31zM572 917q-15 0 -28.5 -1t-27.5 -3v102
q27 4 56 4q28 0 55 -4v-102q-14 2 -27.5 3t-27.5 1zM471 905q-27 -7 -53 -16t-52 -22l-38 93q25 13 51.5 22t52.5 17zM209 726q-14 -23 -25.5 -48t-19.5 -54l-94 40q8 27 19.5 53t25.5 49zM325 843q-23 -16 -44.5 -34.5t-39.5 -39.5l-72 72q38 41 83 73zM367 168
q27 -13 53.5 -21.5t52.5 -13.5l-39 -96q-26 7 -52.5 15.5t-52.5 21.5zM163 414q15 -58 43 -104l-96 -39q-26 45 -41 104zM239 265q18 -23 40 -41t45 -32l-74 -74q-44 29 -84 74z" />
    <glyph glyph-name="ga.sub.001" unicode="&#x1039;&#x1002;" horiz-adv-x="1171" 
d="M982 -459q0 -193 -158 -320l-35 -16q-54 0 -72 79q0 27 12 38q106 87 106 223q0 25 -14 71l-48 60q-69 67 -199 67q-107 0 -173 -65q-70 -42 -70 -137q0 -136 97 -217l13 -17l5 -19q0 -23 -22 -51.5t-46 -31.5q-29 0 -47 17q-151 136 -151 323q0 71 44 147
q55 127 208 177q62 21 142 21q156 0 288 -97q120 -120 120 -252zM811 198q23 16 44.5 34t39.5 40l66 -65q-39 -42 -82 -76zM925 311q32 47 48 100l89 -36q-20 -52 -51 -100zM898 766q-18 21 -39 39.5t-44 35.5l70 69q45 -33 82 -75zM974 628q-17 55 -48 100l90 38
q31 -48 49 -100zM669 135q27 6 53 16t51 24l37 -89q-47 -27 -103 -44zM777 865q-48 25 -104 39l38 94q27 -8 53 -18t50 -24zM990 519q0 14 -1 28t-3 28h100q2 -14 3.5 -28t1.5 -28t-2 -27.5t-4 -27.5h-100q2 14 3.5 27.5t1.5 27.5zM572 123q14 0 27.5 1t27.5 3v-102
q-27 -3 -55 -3q-15 0 -28.5 0.5t-27.5 1.5v102q27 -3 56 -3zM50 524q0 13 0.5 26t1.5 25h102q-3 -24 -3 -51q0 -32 3 -60h-102q-2 14 -2 29v31zM572 917q-15 0 -28.5 -1t-27.5 -3v102q27 4 56 4q28 0 55 -4v-102q-14 2 -27.5 3t-27.5 1zM471 905q-27 -7 -53 -16t-52 -22
l-38 93q25 13 51.5 22t52.5 17zM209 726q-14 -23 -25.5 -48t-19.5 -54l-94 40q8 27 19.5 53t25.5 49zM325 843q-23 -16 -44.5 -34.5t-39.5 -39.5l-72 72q38 41 83 73zM367 168q27 -13 53.5 -21.5t52.5 -13.5l-39 -96q-26 7 -52.5 15.5t-52.5 21.5zM163 414q15 -58 43 -104
l-96 -39q-26 45 -41 104zM239 265q18 -23 40 -41t45 -32l-74 -74q-44 29 -84 74z" />
    <glyph glyph-name="gha.sub.001" unicode="&#x1039;&#x1003;" horiz-adv-x="1600" 
d="M1520 -447q0 -152 -123 -255.5t-277 -103.5q-231 0 -334 174q-99 -172 -336 -172q-127 0 -250 83q-136 90 -136 220q0 49 13.5 90t70.5 61l106 47q33 19 42 54l-37 20l-33 4q-51 0 -55 -11q0 -41 -65 -41q-56 0 -56 58q17 124 169 124q45 0 64 -7l27 -8q105 -37 118 -144
q0 -86 -101 -149q-27 -20 -97 -46q-31 -21 -34 -53q0 -70 93 -123q80 -47 161 -47q110 0 185.5 70t75.5 178q0 147 -139 224l-6 50q-2 54 58 61l32 -7q89 -51 137 -128.5t48 -172.5l4 -37q0 -50 26 -87q13 -38 53 -71q80 -78 194 -78h69q29 7 58 19q16 8 56 38q85 73 85 168
q0 88 -80.5 163.5t-206.5 75.5l-33 -12q-63 0 -78 68q0 32 24 52l45 9l29 2q173 0 295 -89q139 -101 139 -271zM1057 198q23 16 44.5 34t39.5 40l66 -65q-39 -42 -82 -76zM1171 311q32 47 48 100l89 -36q-20 -52 -51 -100zM1144 766q-18 21 -39 39.5t-44 35.5l70 69
q45 -33 82 -75zM1220 628q-17 55 -48 100l90 38q31 -48 49 -100zM915 135q27 6 53 16t51 24l37 -89q-47 -27 -103 -44zM1023 865q-48 25 -104 39l38 94q27 -8 53 -18t50 -24zM1236 519q0 14 -1 28t-3 28h100q2 -14 3.5 -28t1.5 -28t-2 -27.5t-4 -27.5h-100q2 14 3.5 27.5
t1.5 27.5zM818 123q14 0 27.5 1t27.5 3v-102q-27 -3 -55 -3q-15 0 -28.5 0.5t-27.5 1.5v102q27 -3 56 -3zM296 524q0 13 0.5 26t1.5 25h102q-3 -24 -3 -51q0 -32 3 -60h-102q-2 14 -2 29v31zM818 917q-15 0 -28.5 -1t-27.5 -3v102q27 4 56 4q28 0 55 -4v-102q-14 2 -27.5 3
t-27.5 1zM717 905q-27 -7 -53 -16t-52 -22l-38 93q25 13 51.5 22t52.5 17zM455 726q-14 -23 -25.5 -48t-19.5 -54l-94 40q8 27 19.5 53t25.5 49zM571 843q-23 -16 -44.5 -34.5t-39.5 -39.5l-72 72q38 41 83 73zM613 168q27 -13 53.5 -21.5t52.5 -13.5l-39 -96
q-26 7 -52.5 15.5t-52.5 21.5zM409 414q15 -58 43 -104l-96 -39q-26 45 -41 104zM485 265q18 -23 40 -41t45 -32l-74 -74q-44 29 -84 74z" />
    <glyph glyph-name="ca.sub.001" unicode="&#x1039;&#x1005;" horiz-adv-x="1171" 
d="M959 -453q0 -150 -116 -243q-128 -108 -288 -108t-280 102.5t-120 267.5q0 158 115 260q125 107 306 107q158 0 278 -119q9 -10 34 -45.5t42 -81.5q29 -64 29 -140zM806 -453q0 147 -140 216q-51 19 -93 19l-51 -5q38 -26 65.5 -82.5t27.5 -128.5q0 -154 -89 -215l30 -2
q104 -4 185 68q65 48 65 130zM464 -434q0 80 -96 138q-51 -40 -60 -139q0 -42 20 -92q17 -31 44 -57q32 21 66 68q22 38 26 82zM811 198q23 16 44.5 34t39.5 40l66 -65q-39 -42 -82 -76zM925 311q32 47 48 100l89 -36q-20 -52 -51 -100zM898 766q-18 21 -39 39.5t-44 35.5
l70 69q45 -33 82 -75zM974 628q-17 55 -48 100l90 38q31 -48 49 -100zM669 135q27 6 53 16t51 24l37 -89q-47 -27 -103 -44zM777 865q-48 25 -104 39l38 94q27 -8 53 -18t50 -24zM990 519q0 14 -1 28t-3 28h100q2 -14 3.5 -28t1.5 -28t-2 -27.5t-4 -27.5h-100q2 14 3.5 27.5
t1.5 27.5zM572 123q14 0 27.5 1t27.5 3v-102q-27 -3 -55 -3q-15 0 -28.5 0.5t-27.5 1.5v102q27 -3 56 -3zM50 524q0 13 0.5 26t1.5 25h102q-3 -24 -3 -51q0 -32 3 -60h-102q-2 14 -2 29v31zM572 917q-15 0 -28.5 -1t-27.5 -3v102q27 4 56 4q28 0 55 -4v-102q-14 2 -27.5 3
t-27.5 1zM471 905q-27 -7 -53 -16t-52 -22l-38 93q25 13 51.5 22t52.5 17zM209 726q-14 -23 -25.5 -48t-19.5 -54l-94 40q8 27 19.5 53t25.5 49zM325 843q-23 -16 -44.5 -34.5t-39.5 -39.5l-72 72q38 41 83 73zM367 168q27 -13 53.5 -21.5t52.5 -13.5l-39 -96
q-26 7 -52.5 15.5t-52.5 21.5zM163 414q15 -58 43 -104l-96 -39q-26 45 -41 104zM239 265q18 -23 40 -41t45 -32l-74 -74q-44 29 -84 74z" />
    <glyph glyph-name="cha.sub.001" unicode="&#x1039;&#x1006;" horiz-adv-x="1610" 
d="M1530 -449q0 -160 -128.5 -259.5t-289.5 -99.5q-220 0 -330 145q-107 -147 -338 -147q-182 0 -313 123l-38 47l-25 33q-18 21 -18 46q0 15 28 57q110 89 241 89q95 0 184.5 -51.5t127.5 -130.5q44 23 72 101l2 47l-2 52q-18 75 -95 116t-164 41q-129 0 -211 -81
q-38 -38 -78 -38q-64 -5 -64 62q0 39 38 86q133 124 315 124q222 0 337 -145q103 147 331 147q167 0 287 -92q131 -109 131 -272zM1377 -449q0 101 -83 159q-76 54 -182 54q-205 0 -256 -156l7 -57l-9 -48q21 -76 102 -121q69 -43 156 -43q104 0 184.5 58t80.5 154z
M497 -653q-24 44 -109 77l-76 12l-55 -2l-25 -12q25 -25 92 -51q53 -32 119 -32zM1041 198q23 16 44.5 34t39.5 40l66 -65q-39 -42 -82 -76zM1155 311q32 47 48 100l89 -36q-20 -52 -51 -100zM1128 766q-18 21 -39 39.5t-44 35.5l70 69q45 -33 82 -75zM1204 628
q-17 55 -48 100l90 38q31 -48 49 -100zM899 135q27 6 53 16t51 24l37 -89q-47 -27 -103 -44zM1007 865q-48 25 -104 39l38 94q27 -8 53 -18t50 -24zM1220 519q0 14 -1 28t-3 28h100q2 -14 3.5 -28t1.5 -28t-2 -27.5t-4 -27.5h-100q2 14 3.5 27.5t1.5 27.5zM802 123
q14 0 27.5 1t27.5 3v-102q-27 -3 -55 -3q-15 0 -28.5 0.5t-27.5 1.5v102q27 -3 56 -3zM280 524q0 13 0.5 26t1.5 25h102q-3 -24 -3 -51q0 -32 3 -60h-102q-2 14 -2 29v31zM802 917q-15 0 -28.5 -1t-27.5 -3v102q27 4 56 4q28 0 55 -4v-102q-14 2 -27.5 3t-27.5 1zM701 905
q-27 -7 -53 -16t-52 -22l-38 93q25 13 51.5 22t52.5 17zM439 726q-14 -23 -25.5 -48t-19.5 -54l-94 40q8 27 19.5 53t25.5 49zM555 843q-23 -16 -44.5 -34.5t-39.5 -39.5l-72 72q38 41 83 73zM597 168q27 -13 53.5 -21.5t52.5 -13.5l-39 -96q-26 7 -52.5 15.5t-52.5 21.5z
M393 414q15 -58 43 -104l-96 -39q-26 45 -41 104zM469 265q18 -23 40 -41t45 -32l-74 -74q-44 29 -84 74z" />
    <glyph glyph-name="ja.sub.001" unicode="&#x1039;&#x1007;" horiz-adv-x="1171" 
d="M973 -585q-4 -17 -25 -37q-12 -13 -40 -18q-31 0 -54 20l-45 57q-48 -30 -166 -30q-65 0 -126 48t-61 114l4 39q22 46 63 66t107 23q114 -8 177 -73l1 4q3 34 -41 72q-72 64 -191 64q-95 0 -169 -57q-27 -27 -52 -72q-22 -41 -20 -92q0 -53 13 -82q28 -78 140 -124
q47 -20 95 -22q78 -8 136 8l42 7q38 -11 48 -27.5t10 -37.5q0 -28 -54 -50q-65 -17 -183 -17q-72 0 -141 24q-80 27 -136 82q-109 109 -109 243q0 145 109 244t271 99q149 0 269 -92q82 -65 82 -182l-7 -46l-24 -44l61 -79zM742 -465q-10 7 -31 26l-40 18l-37 4
q-46 3 -52 -8l-2 -12v2q19 -36 71 -43l65 4q19 3 26 9zM811 198q23 16 44.5 34t39.5 40l66 -65q-39 -42 -82 -76zM925 311q32 47 48 100l89 -36q-20 -52 -51 -100zM898 766q-18 21 -39 39.5t-44 35.5l70 69q45 -33 82 -75zM974 628q-17 55 -48 100l90 38q31 -48 49 -100z
M669 135q27 6 53 16t51 24l37 -89q-47 -27 -103 -44zM777 865q-48 25 -104 39l38 94q27 -8 53 -18t50 -24zM990 519q0 14 -1 28t-3 28h100q2 -14 3.5 -28t1.5 -28t-2 -27.5t-4 -27.5h-100q2 14 3.5 27.5t1.5 27.5zM572 123q14 0 27.5 1t27.5 3v-102q-27 -3 -55 -3
q-15 0 -28.5 0.5t-27.5 1.5v102q27 -3 56 -3zM50 524q0 13 0.5 26t1.5 25h102q-3 -24 -3 -51q0 -32 3 -60h-102q-2 14 -2 29v31zM572 917q-15 0 -28.5 -1t-27.5 -3v102q27 4 56 4q28 0 55 -4v-102q-14 2 -27.5 3t-27.5 1zM471 905q-27 -7 -53 -16t-52 -22l-38 93
q25 13 51.5 22t52.5 17zM209 726q-14 -23 -25.5 -48t-19.5 -54l-94 40q8 27 19.5 53t25.5 49zM325 843q-23 -16 -44.5 -34.5t-39.5 -39.5l-72 72q38 41 83 73zM367 168q27 -13 53.5 -21.5t52.5 -13.5l-39 -96q-26 7 -52.5 15.5t-52.5 21.5zM163 414q15 -58 43 -104l-96 -39
q-26 45 -41 104zM239 265q18 -23 40 -41t45 -32l-74 -74q-44 29 -84 74z" />
    <glyph glyph-name="jha.sub.001" unicode="&#x1039;&#x1008;" horiz-adv-x="1449" 
d="M1369 -723q0 -73 -97 -62l-392 101q-92 -84 -214 -111q-42 -9 -84 -9q-146 0 -252.5 106.5t-106.5 263.5q0 150 107.5 257.5t259.5 107.5q150 0 262 -109.5t112 -259.5q0 -66 -20 -110l276 -72v1583q1 74 73 74q76 0 76 -74v-1686zM827 -440q0 95 -67 160.5t-164 65.5
h-43q-19 0 -26 -3q107 -76 107 -221q0 -146 -105 -221q24 -8 61 -8q100 0 167 67q70 58 70 160zM499 -431q0 86 -78 152q-53 -55 -53 -153q0 -53 11 -85q12 -38 44 -67q39 27 64 75zM811 198q23 16 44.5 34t39.5 40l66 -65q-39 -42 -82 -76zM925 311q32 47 48 100l89 -36
q-20 -52 -51 -100zM898 766q-18 21 -39 39.5t-44 35.5l70 69q45 -33 82 -75zM974 628q-17 55 -48 100l90 38q31 -48 49 -100zM669 135q27 6 53 16t51 24l37 -89q-47 -27 -103 -44zM777 865q-48 25 -104 39l38 94q27 -8 53 -18t50 -24zM990 519q0 14 -1 28t-3 28h100
q2 -14 3.5 -28t1.5 -28t-2 -27.5t-4 -27.5h-100q2 14 3.5 27.5t1.5 27.5zM572 123q14 0 27.5 1t27.5 3v-102q-27 -3 -55 -3q-15 0 -28.5 0.5t-27.5 1.5v102q27 -3 56 -3zM50 524q0 13 0.5 26t1.5 25h102q-3 -24 -3 -51q0 -32 3 -60h-102q-2 14 -2 29v31zM572 917
q-15 0 -28.5 -1t-27.5 -3v102q27 4 56 4q28 0 55 -4v-102q-14 2 -27.5 3t-27.5 1zM471 905q-27 -7 -53 -16t-52 -22l-38 93q25 13 51.5 22t52.5 17zM209 726q-14 -23 -25.5 -48t-19.5 -54l-94 40q8 27 19.5 53t25.5 49zM325 843q-23 -16 -44.5 -34.5t-39.5 -39.5l-72 72
q38 41 83 73zM367 168q27 -13 53.5 -21.5t52.5 -13.5l-39 -96q-26 7 -52.5 15.5t-52.5 21.5zM163 414q15 -58 43 -104l-96 -39q-26 45 -41 104zM239 265q18 -23 40 -41t45 -32l-74 -74q-44 29 -84 74z" />
    <glyph glyph-name="nnya.sub.001" unicode="&#x1039;&#x100a;" horiz-adv-x="1324" 
d="M1244 -319q0 -133 -105.5 -220t-241.5 -87q-126 0 -244 85q-28 22 -35 38q-88 -123 -282 -123q-86 0 -139 21v-58q1 -13 31 -38q29 -39 133 -39h704q34 -1 28 31q0 75 64 75q54 0 66 -59l-3 -41q-5 -51 -31.5 -87t-122.5 -50h-705q-146 0 -222 72t-76 225v54h1
q-10 22 -2 49q0 56 57 56l48 -21q68 -60 169 -60q82 0 150 46.5t68 120.5q0 88 -65 136.5t-153 48.5q-41 0 -97 -22t-73 -35q-29 -19 -58 -19q-57 0 -57 51q-1 18 15 46q125 106 270 106q140 0 243.5 -86.5t103.5 -224.5q11 -79 58 -110q83 -55 156 -55q92 0 157 54
q57 48 57 120q0 85 -74 133q-69 44 -162 44q-41 -6 -72 -1q-29 16 -22 55q0 31 25 63q32 12 62 13q170 0 273 -87.5t103 -219.5zM951 198q23 16 44.5 34t39.5 40l66 -65q-39 -42 -82 -76zM1065 311q32 47 48 100l89 -36q-20 -52 -51 -100zM1038 766q-18 21 -39 39.5
t-44 35.5l70 69q45 -33 82 -75zM1114 628q-17 55 -48 100l90 38q31 -48 49 -100zM809 135q27 6 53 16t51 24l37 -89q-47 -27 -103 -44zM917 865q-48 25 -104 39l38 94q27 -8 53 -18t50 -24zM1130 519q0 14 -1 28t-3 28h100q2 -14 3.5 -28t1.5 -28t-2 -27.5t-4 -27.5h-100
q2 14 3.5 27.5t1.5 27.5zM712 123q14 0 27.5 1t27.5 3v-102q-27 -3 -55 -3q-15 0 -28.5 0.5t-27.5 1.5v102q27 -3 56 -3zM190 524q0 13 0.5 26t1.5 25h102q-3 -24 -3 -51q0 -32 3 -60h-102q-2 14 -2 29v31zM712 917q-15 0 -28.5 -1t-27.5 -3v102q27 4 56 4q28 0 55 -4v-102
q-14 2 -27.5 3t-27.5 1zM611 905q-27 -7 -53 -16t-52 -22l-38 93q25 13 51.5 22t52.5 17zM349 726q-14 -23 -25.5 -48t-19.5 -54l-94 40q8 27 19.5 53t25.5 49zM465 843q-23 -16 -44.5 -34.5t-39.5 -39.5l-72 72q38 41 83 73zM507 168q27 -13 53.5 -21.5t52.5 -13.5l-39 -96
q-26 7 -52.5 15.5t-52.5 21.5zM303 414q15 -58 43 -104l-96 -39q-26 45 -41 104zM379 265q18 -23 40 -41t45 -32l-74 -74q-44 29 -84 74z" />
    <glyph glyph-name="tta.sub.001" unicode="&#x1039;&#x100b;" horiz-adv-x="1171" 
d="M912 -208q0 -69 -66 -69q-23 0 -52 16q-45 44 -147 66q-27 6 -63 6q-89 0 -157 -34q-88 -36 -88 -109q0 -72 82 -121q78 -42 157 -42q135 0 200 54q25 22 58 24q68 0 68 -58q0 -20 -22 -56q-94 -101 -298 -101q-146 0 -258 74q-132 85 -132 226q0 139 134 220
q112 68 256 68q168 0 293 -101q30 -16 35 -63zM1080 -851q7 -59 -67 -67h-165q-71 0 -71 59v82l-81 -25l-108 -7q-64 -7 -159 17q-70 20 -144 74l-23 20q-20 94 44 121q25 0 72 -32q64 -50 202 -60l118 20l83 29l38 29l27 9q63 0 63 -57v-148h104q67 -13 67 -64zM811 198
q23 16 44.5 34t39.5 40l66 -65q-39 -42 -82 -76zM925 311q32 47 48 100l89 -36q-20 -52 -51 -100zM898 766q-18 21 -39 39.5t-44 35.5l70 69q45 -33 82 -75zM974 628q-17 55 -48 100l90 38q31 -48 49 -100zM669 135q27 6 53 16t51 24l37 -89q-47 -27 -103 -44zM777 865
q-48 25 -104 39l38 94q27 -8 53 -18t50 -24zM990 519q0 14 -1 28t-3 28h100q2 -14 3.5 -28t1.5 -28t-2 -27.5t-4 -27.5h-100q2 14 3.5 27.5t1.5 27.5zM572 123q14 0 27.5 1t27.5 3v-102q-27 -3 -55 -3q-15 0 -28.5 0.5t-27.5 1.5v102q27 -3 56 -3zM50 524q0 13 0.5 26
t1.5 25h102q-3 -24 -3 -51q0 -32 3 -60h-102q-2 14 -2 29v31zM572 917q-15 0 -28.5 -1t-27.5 -3v102q27 4 56 4q28 0 55 -4v-102q-14 2 -27.5 3t-27.5 1zM471 905q-27 -7 -53 -16t-52 -22l-38 93q25 13 51.5 22t52.5 17zM209 726q-14 -23 -25.5 -48t-19.5 -54l-94 40
q8 27 19.5 53t25.5 49zM325 843q-23 -16 -44.5 -34.5t-39.5 -39.5l-72 72q38 41 83 73zM367 168q27 -13 53.5 -21.5t52.5 -13.5l-39 -96q-26 7 -52.5 15.5t-52.5 21.5zM163 414q15 -58 43 -104l-96 -39q-26 45 -41 104zM239 265q18 -23 40 -41t45 -32l-74 -74q-44 29 -84 74
z" />
    <glyph glyph-name="ttha.sub.001" unicode="&#x1039;&#x100c;" horiz-adv-x="1596" 
d="M1516 -477q0 -124 -49 -203q-28 -47 -114 -111l-45 53q-13 4 -51 52q114 80 114 209q0 80 -89 142q-82 58 -170 58q-94 0 -166 -51q-79 -59 -79 -143q0 -110 88 -177l16 -46q0 -35 -23.5 -64t-50.5 -29h-564q-87 0 -118 8q-47 2 -79 24q-69 17 -86 146v327l8 66
q9 76 117 90l72 4h42l2 -129q-88 0 -88 -50v-254q0 -70 58 -85l501 4q-21 29 -32 69l-12 89q0 153 127 256q119 94 273 94q159 0 273 -92q125 -101 125 -257zM1085 198q23 16 44.5 34t39.5 40l66 -65q-39 -42 -82 -76zM1199 311q32 47 48 100l89 -36q-20 -52 -51 -100z
M1172 766q-18 21 -39 39.5t-44 35.5l70 69q45 -33 82 -75zM1248 628q-17 55 -48 100l90 38q31 -48 49 -100zM943 135q27 6 53 16t51 24l37 -89q-47 -27 -103 -44zM1051 865q-48 25 -104 39l38 94q27 -8 53 -18t50 -24zM1264 519q0 14 -1 28t-3 28h100q2 -14 3.5 -28t1.5 -28
t-2 -27.5t-4 -27.5h-100q2 14 3.5 27.5t1.5 27.5zM846 123q14 0 27.5 1t27.5 3v-102q-27 -3 -55 -3q-15 0 -28.5 0.5t-27.5 1.5v102q27 -3 56 -3zM324 524q0 13 0.5 26t1.5 25h102q-3 -24 -3 -51q0 -32 3 -60h-102q-2 14 -2 29v31zM846 917q-15 0 -28.5 -1t-27.5 -3v102
q27 4 56 4q28 0 55 -4v-102q-14 2 -27.5 3t-27.5 1zM745 905q-27 -7 -53 -16t-52 -22l-38 93q25 13 51.5 22t52.5 17zM483 726q-14 -23 -25.5 -48t-19.5 -54l-94 40q8 27 19.5 53t25.5 49zM599 843q-23 -16 -44.5 -34.5t-39.5 -39.5l-72 72q38 41 83 73zM641 168
q27 -13 53.5 -21.5t52.5 -13.5l-39 -96q-26 7 -52.5 15.5t-52.5 21.5zM437 414q15 -58 43 -104l-96 -39q-26 45 -41 104zM513 265q18 -23 40 -41t45 -32l-74 -74q-44 29 -84 74z" />
    <glyph glyph-name="dda.sub.001" unicode="&#x1039;&#x100d;" horiz-adv-x="1171" 
d="M247 -171q8 47 38 63q125 99 293 99q142 0 254 -66q134 -83 134 -222t-130 -224q-112 -76 -258 -76q-204 0 -300 101q-22 36 -22 58q0 58 71 58q32 -5 57 -23q63 -55 200 -55q77 0 155 42q82 47 82 119q0 75 -85 111q-68 32 -158 32q-38 0 -66 -7q-99 -19 -144 -63
q-31 -18 -54 -18q-67 0 -67 71zM1080 -851q7 -59 -67 -67h-165q-71 0 -71 59v82l-81 -25l-108 -7q-64 -7 -159 17q-70 20 -144 74l-23 20q-20 94 44 121q25 0 72 -32q64 -50 202 -60l118 20l83 29l38 29l27 9q63 0 63 -57v-148h104q67 -13 67 -64zM811 198q23 16 44.5 34
t39.5 40l66 -65q-39 -42 -82 -76zM925 311q32 47 48 100l89 -36q-20 -52 -51 -100zM898 766q-18 21 -39 39.5t-44 35.5l70 69q45 -33 82 -75zM974 628q-17 55 -48 100l90 38q31 -48 49 -100zM669 135q27 6 53 16t51 24l37 -89q-47 -27 -103 -44zM777 865q-48 25 -104 39
l38 94q27 -8 53 -18t50 -24zM990 519q0 14 -1 28t-3 28h100q2 -14 3.5 -28t1.5 -28t-2 -27.5t-4 -27.5h-100q2 14 3.5 27.5t1.5 27.5zM572 123q14 0 27.5 1t27.5 3v-102q-27 -3 -55 -3q-15 0 -28.5 0.5t-27.5 1.5v102q27 -3 56 -3zM50 524q0 13 0.5 26t1.5 25h102
q-3 -24 -3 -51q0 -32 3 -60h-102q-2 14 -2 29v31zM572 917q-15 0 -28.5 -1t-27.5 -3v102q27 4 56 4q28 0 55 -4v-102q-14 2 -27.5 3t-27.5 1zM471 905q-27 -7 -53 -16t-52 -22l-38 93q25 13 51.5 22t52.5 17zM209 726q-14 -23 -25.5 -48t-19.5 -54l-94 40q8 27 19.5 53
t25.5 49zM325 843q-23 -16 -44.5 -34.5t-39.5 -39.5l-72 72q38 41 83 73zM367 168q27 -13 53.5 -21.5t52.5 -13.5l-39 -96q-26 7 -52.5 15.5t-52.5 21.5zM163 414q15 -58 43 -104l-96 -39q-26 45 -41 104zM239 265q18 -23 40 -41t45 -32l-74 -74q-44 29 -84 74z" />
    <glyph glyph-name="ddha.sub.001" unicode="&#x1039;&#x100e;" horiz-adv-x="1171" 
d="M166 -410q1 27 18 55t44 56l93 57q8 7 14.5 19t8.5 24q-1 4 -6.5 9.5t-21.5 13.5l-11 2q-28 -3 -27 -11q7 -69 -66 -78q-71 -7 -79 67q2 64 47 112q21 25 49 38t59 15q91 5 160 -60q33 -37 42 -99q5 -41 -12.5 -79t-51.5 -73q-19 -20 -43 -36t-59 -32l-9 -14
q1 -54 27 -98q18 -36 50 -57q80 -62 182 -62q109 0 185.5 57.5t76.5 165.5q0 133 -136 213q-40 14 -40 59q0 73 73 85l32 -11q222 -116 222 -346q0 -165 -124.5 -268.5t-288.5 -103.5q-167 0 -288 103q-46 38 -74 86q-30 42 -43 94q-9 59 -3 97zM811 198q23 16 44.5 34
t39.5 40l66 -65q-39 -42 -82 -76zM925 311q32 47 48 100l89 -36q-20 -52 -51 -100zM898 766q-18 21 -39 39.5t-44 35.5l70 69q45 -33 82 -75zM974 628q-17 55 -48 100l90 38q31 -48 49 -100zM669 135q27 6 53 16t51 24l37 -89q-47 -27 -103 -44zM777 865q-48 25 -104 39
l38 94q27 -8 53 -18t50 -24zM990 519q0 14 -1 28t-3 28h100q2 -14 3.5 -28t1.5 -28t-2 -27.5t-4 -27.5h-100q2 14 3.5 27.5t1.5 27.5zM572 123q14 0 27.5 1t27.5 3v-102q-27 -3 -55 -3q-15 0 -28.5 0.5t-27.5 1.5v102q27 -3 56 -3zM50 524q0 13 0.5 26t1.5 25h102
q-3 -24 -3 -51q0 -32 3 -60h-102q-2 14 -2 29v31zM572 917q-15 0 -28.5 -1t-27.5 -3v102q27 4 56 4q28 0 55 -4v-102q-14 2 -27.5 3t-27.5 1zM471 905q-27 -7 -53 -16t-52 -22l-38 93q25 13 51.5 22t52.5 17zM209 726q-14 -23 -25.5 -48t-19.5 -54l-94 40q8 27 19.5 53
t25.5 49zM325 843q-23 -16 -44.5 -34.5t-39.5 -39.5l-72 72q38 41 83 73zM367 168q27 -13 53.5 -21.5t52.5 -13.5l-39 -96q-26 7 -52.5 15.5t-52.5 21.5zM163 414q15 -58 43 -104l-96 -39q-26 45 -41 104zM239 265q18 -23 40 -41t45 -32l-74 -74q-44 29 -84 74z" />
    <glyph glyph-name="nna.sub.001" unicode="&#x1039;&#x100f;" horiz-adv-x="1797" 
d="M1717 -450q0 -165 -184 -290l-104 -45q-46 -21 -111 -21l-64 10l-55 12q-37 0 -37 54q0 75 71 82l53 -6q88 0 163 43q95 59 107 159l-2 36l-36 82q-64 86 -201 86q-79 -6 -136 -32q-119 -53 -116 -165q0 -46 10 -80q1 -6 19 -29l8 -30v-42q0 -73 -73.5 -122.5
t-147.5 -49.5q-76 0 -142 44q-76 53 -76 128v46q5 21 7 26l22 51q7 19 7 58q0 85 -103 153q-65 46 -156 46q-97 0 -165.5 -54.5t-68.5 -144.5q0 -111 91 -161q35 -17 102 -31l131 -11q31 -5 53 -30.5t22 -53.5q0 -42 -47 -52q-56 -20 -97 -20q-127 0 -244 71
q-167 101 -167 290q0 108 66 199q113 149 326 149q120 0 235 -64l37 -20q42 90 167 90q106 0 164 -90l46 26q100 60 226 60q197 0 331 -151q69 -101 69 -206zM943 -614v13q-37 62 -37 159l9 71l28 62v33q0 36 -62 36q-56 0 -60 -37l-2 -34l27 -64l9 -69q0 -82 -36 -145
l2 -25q0 -44 60 -44q62 0 62 44zM1129 198q23 16 44.5 34t39.5 40l66 -65q-39 -42 -82 -76zM1243 311q32 47 48 100l89 -36q-20 -52 -51 -100zM1216 766q-18 21 -39 39.5t-44 35.5l70 69q45 -33 82 -75zM1292 628q-17 55 -48 100l90 38q31 -48 49 -100zM987 135q27 6 53 16
t51 24l37 -89q-47 -27 -103 -44zM1095 865q-48 25 -104 39l38 94q27 -8 53 -18t50 -24zM1308 519q0 14 -1 28t-3 28h100q2 -14 3.5 -28t1.5 -28t-2 -27.5t-4 -27.5h-100q2 14 3.5 27.5t1.5 27.5zM890 123q14 0 27.5 1t27.5 3v-102q-27 -3 -55 -3q-15 0 -28.5 0.5t-27.5 1.5
v102q27 -3 56 -3zM368 524q0 13 0.5 26t1.5 25h102q-3 -24 -3 -51q0 -32 3 -60h-102q-2 14 -2 29v31zM890 917q-15 0 -28.5 -1t-27.5 -3v102q27 4 56 4q28 0 55 -4v-102q-14 2 -27.5 3t-27.5 1zM789 905q-27 -7 -53 -16t-52 -22l-38 93q25 13 51.5 22t52.5 17zM527 726
q-14 -23 -25.5 -48t-19.5 -54l-94 40q8 27 19.5 53t25.5 49zM643 843q-23 -16 -44.5 -34.5t-39.5 -39.5l-72 72q38 41 83 73zM685 168q27 -13 53.5 -21.5t52.5 -13.5l-39 -96q-26 7 -52.5 15.5t-52.5 21.5zM481 414q15 -58 43 -104l-96 -39q-26 45 -41 104zM557 265
q18 -23 40 -41t45 -32l-74 -74q-44 29 -84 74z" />
    <glyph glyph-name="ta.sub.001" unicode="&#x1039;&#x1010;" horiz-adv-x="1641" 
d="M1561 -438q0 -265 -295 -341q-90 -23 -167 -23q-97 0 -97 73q0 58 102 74q153 0 229.5 71t76.5 146q0 92 -89 157q-79 55 -183 55q-96 0 -170 -55t-95 -146q0 -168 -120.5 -271.5t-288.5 -103.5q-167 0 -290.5 99.5t-123.5 266.5q0 162 129 267q120 92 285 92
q234 0 339 -149q11 20 48 51q138 100 289 100q158 0 289.5 -105.5t131.5 -257.5zM726 -410q-11 74 -82 128t-180 54q-107 0 -180 -51q-81 -59 -81 -157t84 -161q77 -58 177 -58q228 0 262 245zM1062 198q23 16 44.5 34t39.5 40l66 -65q-39 -42 -82 -76zM1176 311
q32 47 48 100l89 -36q-20 -52 -51 -100zM1149 766q-18 21 -39 39.5t-44 35.5l70 69q45 -33 82 -75zM1225 628q-17 55 -48 100l90 38q31 -48 49 -100zM920 135q27 6 53 16t51 24l37 -89q-47 -27 -103 -44zM1028 865q-48 25 -104 39l38 94q27 -8 53 -18t50 -24zM1241 519
q0 14 -1 28t-3 28h100q2 -14 3.5 -28t1.5 -28t-2 -27.5t-4 -27.5h-100q2 14 3.5 27.5t1.5 27.5zM823 123q14 0 27.5 1t27.5 3v-102q-27 -3 -55 -3q-15 0 -28.5 0.5t-27.5 1.5v102q27 -3 56 -3zM301 524q0 13 0.5 26t1.5 25h102q-3 -24 -3 -51q0 -32 3 -60h-102q-2 14 -2 29
v31zM823 917q-15 0 -28.5 -1t-27.5 -3v102q27 4 56 4q28 0 55 -4v-102q-14 2 -27.5 3t-27.5 1zM722 905q-27 -7 -53 -16t-52 -22l-38 93q25 13 51.5 22t52.5 17zM460 726q-14 -23 -25.5 -48t-19.5 -54l-94 40q8 27 19.5 53t25.5 49zM576 843q-23 -16 -44.5 -34.5
t-39.5 -39.5l-72 72q38 41 83 73zM618 168q27 -13 53.5 -21.5t52.5 -13.5l-39 -96q-26 7 -52.5 15.5t-52.5 21.5zM414 414q15 -58 43 -104l-96 -39q-26 45 -41 104zM490 265q18 -23 40 -41t45 -32l-74 -74q-44 29 -84 74z" />
    <glyph glyph-name="tha.sub.001" unicode="&#x1039;&#x1011;" horiz-adv-x="1622" 
d="M1542 -444q0 -165 -127 -265.5t-293 -100.5q-219 0 -326 150q-114 -150 -338 -150q-163 0 -281 96q-127 105 -127 270q0 158 123.5 258.5t284.5 100.5q224 0 337 -148q98 148 327 148q168 0 289 -92q131 -105 131 -267zM1387 -444q0 97 -83 159q-75 53 -182 53
q-101 0 -173 -57.5t-72 -154.5q0 -100 72 -159.5t173 -59.5q111 0 188 57t77 162zM722 -444q0 98 -83 159q-74 53 -181 53q-98 0 -176.5 -58.5t-78.5 -153.5q0 -100 76.5 -159.5t178.5 -59.5q101 0 182.5 60t81.5 159zM1037 198q23 16 44.5 34t39.5 40l66 -65
q-39 -42 -82 -76zM1151 311q32 47 48 100l89 -36q-20 -52 -51 -100zM1124 766q-18 21 -39 39.5t-44 35.5l70 69q45 -33 82 -75zM1200 628q-17 55 -48 100l90 38q31 -48 49 -100zM895 135q27 6 53 16t51 24l37 -89q-47 -27 -103 -44zM1003 865q-48 25 -104 39l38 94
q27 -8 53 -18t50 -24zM1216 519q0 14 -1 28t-3 28h100q2 -14 3.5 -28t1.5 -28t-2 -27.5t-4 -27.5h-100q2 14 3.5 27.5t1.5 27.5zM798 123q14 0 27.5 1t27.5 3v-102q-27 -3 -55 -3q-15 0 -28.5 0.5t-27.5 1.5v102q27 -3 56 -3zM276 524q0 13 0.5 26t1.5 25h102q-3 -24 -3 -51
q0 -32 3 -60h-102q-2 14 -2 29v31zM798 917q-15 0 -28.5 -1t-27.5 -3v102q27 4 56 4q28 0 55 -4v-102q-14 2 -27.5 3t-27.5 1zM697 905q-27 -7 -53 -16t-52 -22l-38 93q25 13 51.5 22t52.5 17zM435 726q-14 -23 -25.5 -48t-19.5 -54l-94 40q8 27 19.5 53t25.5 49zM551 843
q-23 -16 -44.5 -34.5t-39.5 -39.5l-72 72q38 41 83 73zM593 168q27 -13 53.5 -21.5t52.5 -13.5l-39 -96q-26 7 -52.5 15.5t-52.5 21.5zM389 414q15 -58 43 -104l-96 -39q-26 45 -41 104zM465 265q18 -23 40 -41t45 -32l-74 -74q-44 29 -84 74z" />
    <glyph glyph-name="da.sub.001" unicode="&#x1039;&#x1012;" horiz-adv-x="1171" 
d="M932 -278q0 -55 -17.5 -99t-34.5 -61q48 -42 48 -173q-56 -198 -354 -198q-309 0 -352 199q7 92 79 92q51 0 65.5 -51t45.5 -67q52 -29 162 -29q191 0 213 93q-3 21 -37.5 39t-62.5 18h-56q-76 0 -76 75q0 74 76 74h69q83 16 83 66q0 69 -209 69q-98 0 -141 -20
q-31 -16 -64 -61q-40 -70 -116 -40q-51 39 -24 96q71 169 345 169q306 0 358 -191zM811 198q23 16 44.5 34t39.5 40l66 -65q-39 -42 -82 -76zM925 311q32 47 48 100l89 -36q-20 -52 -51 -100zM898 766q-18 21 -39 39.5t-44 35.5l70 69q45 -33 82 -75zM974 628
q-17 55 -48 100l90 38q31 -48 49 -100zM669 135q27 6 53 16t51 24l37 -89q-47 -27 -103 -44zM777 865q-48 25 -104 39l38 94q27 -8 53 -18t50 -24zM990 519q0 14 -1 28t-3 28h100q2 -14 3.5 -28t1.5 -28t-2 -27.5t-4 -27.5h-100q2 14 3.5 27.5t1.5 27.5zM572 123
q14 0 27.5 1t27.5 3v-102q-27 -3 -55 -3q-15 0 -28.5 0.5t-27.5 1.5v102q27 -3 56 -3zM50 524q0 13 0.5 26t1.5 25h102q-3 -24 -3 -51q0 -32 3 -60h-102q-2 14 -2 29v31zM572 917q-15 0 -28.5 -1t-27.5 -3v102q27 4 56 4q28 0 55 -4v-102q-14 2 -27.5 3t-27.5 1zM471 905
q-27 -7 -53 -16t-52 -22l-38 93q25 13 51.5 22t52.5 17zM209 726q-14 -23 -25.5 -48t-19.5 -54l-94 40q8 27 19.5 53t25.5 49zM325 843q-23 -16 -44.5 -34.5t-39.5 -39.5l-72 72q38 41 83 73zM367 168q27 -13 53.5 -21.5t52.5 -13.5l-39 -96q-26 7 -52.5 15.5t-52.5 21.5z
M163 414q15 -58 43 -104l-96 -39q-26 45 -41 104zM239 265q18 -23 40 -41t45 -32l-74 -74q-44 29 -84 74z" />
    <glyph glyph-name="dha.sub.001" unicode="&#x1039;&#x1013;" horiz-adv-x="1171" 
d="M991 -444q0 -161 -126.5 -263.5t-286.5 -102.5q-165 0 -283 96q-127 105 -127 270q0 158 123.5 258.5t286.5 100.5q160 0 286.5 -100.5t126.5 -258.5zM840 -443q6 93 -83 153q-80 58 -179 58q-100 0 -175 -58q-84 -60 -84 -154q0 -57 10 -76q108 95 245 95q76 0 139 -28
q53 -20 112 -62q6 7 11 21zM713 -629l-63 39q-32 18 -76 18q-95 0 -141 -51q55 -40 145 -40q83 0 135 34zM811 198q23 16 44.5 34t39.5 40l66 -65q-39 -42 -82 -76zM925 311q32 47 48 100l89 -36q-20 -52 -51 -100zM898 766q-18 21 -39 39.5t-44 35.5l70 69q45 -33 82 -75z
M974 628q-17 55 -48 100l90 38q31 -48 49 -100zM669 135q27 6 53 16t51 24l37 -89q-47 -27 -103 -44zM777 865q-48 25 -104 39l38 94q27 -8 53 -18t50 -24zM990 519q0 14 -1 28t-3 28h100q2 -14 3.5 -28t1.5 -28t-2 -27.5t-4 -27.5h-100q2 14 3.5 27.5t1.5 27.5zM572 123
q14 0 27.5 1t27.5 3v-102q-27 -3 -55 -3q-15 0 -28.5 0.5t-27.5 1.5v102q27 -3 56 -3zM50 524q0 13 0.5 26t1.5 25h102q-3 -24 -3 -51q0 -32 3 -60h-102q-2 14 -2 29v31zM572 917q-15 0 -28.5 -1t-27.5 -3v102q27 4 56 4q28 0 55 -4v-102q-14 2 -27.5 3t-27.5 1zM471 905
q-27 -7 -53 -16t-52 -22l-38 93q25 13 51.5 22t52.5 17zM209 726q-14 -23 -25.5 -48t-19.5 -54l-94 40q8 27 19.5 53t25.5 49zM325 843q-23 -16 -44.5 -34.5t-39.5 -39.5l-72 72q38 41 83 73zM367 168q27 -13 53.5 -21.5t52.5 -13.5l-39 -96q-26 7 -52.5 15.5t-52.5 21.5z
M163 414q15 -58 43 -104l-96 -39q-26 45 -41 104zM239 265q18 -23 40 -41t45 -32l-74 -74q-44 29 -84 74z" />
    <glyph glyph-name="na.sub.001" unicode="&#x1039;&#x1014;" horiz-adv-x="1171" 
d="M998 -813q-25 -40 -97 -19l-85 56q-37 -21 -95.5 -31t-137.5 -10q-71 2 -129 11.5t-93 22.5q-57 21 -95 61q-53 69 -53 145q0 58 33 109q33 46 75 67q33 15 64 17.5t63 -0.5t61 -14.5t77 -46.5l212 -156l2 13q3 39 -6.5 65.5t-67.5 66.5q-53 30 -133 48
q-130 35 -172 78.5t-40 79.5q0 65 45 107q60 60 154 60q22 0 42.5 -3.5t44 -13.5t50.5 -28t61 -46q19 -23 19 -42q0 -73 -74 -60l-47 33q-45 32 -97 37q-39 7 -58 -17q-17 -20 2.5 -35t33 -19t31.5 -9t37 -9q40 -7 78.5 -16.5t84.5 -35.5q59 -37 98.5 -92t49.5 -120
q0 -44 -5 -70.5t-16 -47.5l65 -40q51 -42 18 -96zM455 -525q-59 8 -80 -15q-22 -41 -3.5 -70t65.5 -45q28 -8 61.5 -13t67 -5.5t66 2l32.5 2.5zM811 198q23 16 44.5 34t39.5 40l66 -65q-39 -42 -82 -76zM925 311q32 47 48 100l89 -36q-20 -52 -51 -100zM898 766
q-18 21 -39 39.5t-44 35.5l70 69q45 -33 82 -75zM974 628q-17 55 -48 100l90 38q31 -48 49 -100zM669 135q27 6 53 16t51 24l37 -89q-47 -27 -103 -44zM777 865q-48 25 -104 39l38 94q27 -8 53 -18t50 -24zM990 519q0 14 -1 28t-3 28h100q2 -14 3.5 -28t1.5 -28t-2 -27.5
t-4 -27.5h-100q2 14 3.5 27.5t1.5 27.5zM572 123q14 0 27.5 1t27.5 3v-102q-27 -3 -55 -3q-15 0 -28.5 0.5t-27.5 1.5v102q27 -3 56 -3zM50 524q0 13 0.5 26t1.5 25h102q-3 -24 -3 -51q0 -32 3 -60h-102q-2 14 -2 29v31zM572 917q-15 0 -28.5 -1t-27.5 -3v102q27 4 56 4
q28 0 55 -4v-102q-14 2 -27.5 3t-27.5 1zM471 905q-27 -7 -53 -16t-52 -22l-38 93q25 13 51.5 22t52.5 17zM209 726q-14 -23 -25.5 -48t-19.5 -54l-94 40q8 27 19.5 53t25.5 49zM325 843q-23 -16 -44.5 -34.5t-39.5 -39.5l-72 72q38 41 83 73zM367 168q27 -13 53.5 -21.5
t52.5 -13.5l-39 -96q-26 7 -52.5 15.5t-52.5 21.5zM163 414q15 -58 43 -104l-96 -39q-26 45 -41 104zM239 265q18 -23 40 -41t45 -32l-74 -74q-44 29 -84 74z" />
    <glyph glyph-name="pa.sub.001" unicode="&#x1039;&#x1015;" horiz-adv-x="1171" 
d="M982 -449q0 -156 -118 -259t-284 -103q-164 0 -282 103t-118 259q0 97 54.5 186.5t155.5 149.5l34 9q29 0 52 -23t23 -54q0 -38 -40 -58q-63 -38 -97 -95.5t-34 -114.5q0 -92 69.5 -153.5t182.5 -61.5t183.5 60t70.5 155q0 60 -34 116t-97 91q-40 17 -40 61q0 30 21.5 55
t51.5 25l30 -10q104 -53 160 -142.5t56 -195.5zM811 198q23 16 44.5 34t39.5 40l66 -65q-39 -42 -82 -76zM925 311q32 47 48 100l89 -36q-20 -52 -51 -100zM898 766q-18 21 -39 39.5t-44 35.5l70 69q45 -33 82 -75zM974 628q-17 55 -48 100l90 38q31 -48 49 -100zM669 135
q27 6 53 16t51 24l37 -89q-47 -27 -103 -44zM777 865q-48 25 -104 39l38 94q27 -8 53 -18t50 -24zM990 519q0 14 -1 28t-3 28h100q2 -14 3.5 -28t1.5 -28t-2 -27.5t-4 -27.5h-100q2 14 3.5 27.5t1.5 27.5zM572 123q14 0 27.5 1t27.5 3v-102q-27 -3 -55 -3q-15 0 -28.5 0.5
t-27.5 1.5v102q27 -3 56 -3zM50 524q0 13 0.5 26t1.5 25h102q-3 -24 -3 -51q0 -32 3 -60h-102q-2 14 -2 29v31zM572 917q-15 0 -28.5 -1t-27.5 -3v102q27 4 56 4q28 0 55 -4v-102q-14 2 -27.5 3t-27.5 1zM471 905q-27 -7 -53 -16t-52 -22l-38 93q25 13 51.5 22t52.5 17z
M209 726q-14 -23 -25.5 -48t-19.5 -54l-94 40q8 27 19.5 53t25.5 49zM325 843q-23 -16 -44.5 -34.5t-39.5 -39.5l-72 72q38 41 83 73zM367 168q27 -13 53.5 -21.5t52.5 -13.5l-39 -96q-26 7 -52.5 15.5t-52.5 21.5zM163 414q15 -58 43 -104l-96 -39q-26 45 -41 104zM239 265
q18 -23 40 -41t45 -32l-74 -74q-44 29 -84 74z" />
    <glyph glyph-name="pha.sub.001" unicode="&#x1039;&#x1016;" horiz-adv-x="1171" 
d="M995 -436q0 -167 -123.5 -270.5t-291.5 -103.5q-163 0 -286.5 104.5t-123.5 269.5q0 213 212 340l37 11q74 0 74 -75q0 -39 -41 -63q-56 -31 -94.5 -97t-38.5 -116q0 -103 82 -163q73 -62 179 -62q117 0 180 59q-129 48 -169 163q-18 62 -18 110q17 134 89 223
q28 33 62 33q20 0 47 -20q224 -115 224 -343zM844 -435q0 104 -91 179q-18 -29 -22 -70l4 -51q22 -58 105 -89zM811 198q23 16 44.5 34t39.5 40l66 -65q-39 -42 -82 -76zM925 311q32 47 48 100l89 -36q-20 -52 -51 -100zM898 766q-18 21 -39 39.5t-44 35.5l70 69
q45 -33 82 -75zM974 628q-17 55 -48 100l90 38q31 -48 49 -100zM669 135q27 6 53 16t51 24l37 -89q-47 -27 -103 -44zM777 865q-48 25 -104 39l38 94q27 -8 53 -18t50 -24zM990 519q0 14 -1 28t-3 28h100q2 -14 3.5 -28t1.5 -28t-2 -27.5t-4 -27.5h-100q2 14 3.5 27.5
t1.5 27.5zM572 123q14 0 27.5 1t27.5 3v-102q-27 -3 -55 -3q-15 0 -28.5 0.5t-27.5 1.5v102q27 -3 56 -3zM50 524q0 13 0.5 26t1.5 25h102q-3 -24 -3 -51q0 -32 3 -60h-102q-2 14 -2 29v31zM572 917q-15 0 -28.5 -1t-27.5 -3v102q27 4 56 4q28 0 55 -4v-102q-14 2 -27.5 3
t-27.5 1zM471 905q-27 -7 -53 -16t-52 -22l-38 93q25 13 51.5 22t52.5 17zM209 726q-14 -23 -25.5 -48t-19.5 -54l-94 40q8 27 19.5 53t25.5 49zM325 843q-23 -16 -44.5 -34.5t-39.5 -39.5l-72 72q38 41 83 73zM367 168q27 -13 53.5 -21.5t52.5 -13.5l-39 -96
q-26 7 -52.5 15.5t-52.5 21.5zM163 414q15 -58 43 -104l-96 -39q-26 45 -41 104zM239 265q18 -23 40 -41t45 -32l-74 -74q-44 29 -84 74z" />
    <glyph glyph-name="ba.sub.001" unicode="&#x1039;&#x1017;" horiz-adv-x="1171" 
d="M987 -428q0 -165 -124.5 -268t-288.5 -103q-167 0 -288.5 101t-121.5 270q0 238 208 342l34 11q73 0 73 -83q0 -101 95 -101q28 0 55 30q23 30 29 72q0 80 66 80q24 0 37 -9q226 -102 226 -342zM836 -428q0 88 -56 150q-57 -128 -206 -128q-150 0 -208 120
q-39 -48 -51 -143q0 -101 77.5 -161.5t181.5 -60.5q109 0 185.5 57.5t76.5 165.5zM811 198q23 16 44.5 34t39.5 40l66 -65q-39 -42 -82 -76zM925 311q32 47 48 100l89 -36q-20 -52 -51 -100zM898 766q-18 21 -39 39.5t-44 35.5l70 69q45 -33 82 -75zM974 628q-17 55 -48 100
l90 38q31 -48 49 -100zM669 135q27 6 53 16t51 24l37 -89q-47 -27 -103 -44zM777 865q-48 25 -104 39l38 94q27 -8 53 -18t50 -24zM990 519q0 14 -1 28t-3 28h100q2 -14 3.5 -28t1.5 -28t-2 -27.5t-4 -27.5h-100q2 14 3.5 27.5t1.5 27.5zM572 123q14 0 27.5 1t27.5 3v-102
q-27 -3 -55 -3q-15 0 -28.5 0.5t-27.5 1.5v102q27 -3 56 -3zM50 524q0 13 0.5 26t1.5 25h102q-3 -24 -3 -51q0 -32 3 -60h-102q-2 14 -2 29v31zM572 917q-15 0 -28.5 -1t-27.5 -3v102q27 4 56 4q28 0 55 -4v-102q-14 2 -27.5 3t-27.5 1zM471 905q-27 -7 -53 -16t-52 -22
l-38 93q25 13 51.5 22t52.5 17zM209 726q-14 -23 -25.5 -48t-19.5 -54l-94 40q8 27 19.5 53t25.5 49zM325 843q-23 -16 -44.5 -34.5t-39.5 -39.5l-72 72q38 41 83 73zM367 168q27 -13 53.5 -21.5t52.5 -13.5l-39 -96q-26 7 -52.5 15.5t-52.5 21.5zM163 414q15 -58 43 -104
l-96 -39q-26 45 -41 104zM239 265q18 -23 40 -41t45 -32l-74 -74q-44 29 -84 74z" />
    <glyph glyph-name="bha.sub.001" unicode="&#x1039;&#x1018;" horiz-adv-x="1575" 
d="M1495 -440q0 -157 -122.5 -260.5t-316.5 -103.5q-41 0 -78 14q-42 17 -50 76q3 42 21 55t48 18l60 -12q111 0 194 52q89 58 89 161q0 87 -68 145q-79 65 -189 65q-88 0 -187 -66q-57 -37 -71 -133q0 -164 -123 -267t-289 -103q-172 0 -319 125q-26 31 -31 60.5t16 53.5
q51 44 124 -7q28 -32 94.5 -58t115.5 -26q106 0 184.5 59t78.5 164q0 90 -82 146t-181 56q-121 0 -202 -72q-76 -56 -129 -11q-32 49 8 109q115 125 323 125q231 0 338 -149q9 22 42 47q140 102 290 102q161 0 286.5 -103.5t125.5 -261.5zM1028 198q23 16 44.5 34t39.5 40
l66 -65q-39 -42 -82 -76zM1142 311q32 47 48 100l89 -36q-20 -52 -51 -100zM1115 766q-18 21 -39 39.5t-44 35.5l70 69q45 -33 82 -75zM1191 628q-17 55 -48 100l90 38q31 -48 49 -100zM886 135q27 6 53 16t51 24l37 -89q-47 -27 -103 -44zM994 865q-48 25 -104 39l38 94
q27 -8 53 -18t50 -24zM1207 519q0 14 -1 28t-3 28h100q2 -14 3.5 -28t1.5 -28t-2 -27.5t-4 -27.5h-100q2 14 3.5 27.5t1.5 27.5zM789 123q14 0 27.5 1t27.5 3v-102q-27 -3 -55 -3q-15 0 -28.5 0.5t-27.5 1.5v102q27 -3 56 -3zM267 524q0 13 0.5 26t1.5 25h102q-3 -24 -3 -51
q0 -32 3 -60h-102q-2 14 -2 29v31zM789 917q-15 0 -28.5 -1t-27.5 -3v102q27 4 56 4q28 0 55 -4v-102q-14 2 -27.5 3t-27.5 1zM688 905q-27 -7 -53 -16t-52 -22l-38 93q25 13 51.5 22t52.5 17zM426 726q-14 -23 -25.5 -48t-19.5 -54l-94 40q8 27 19.5 53t25.5 49zM542 843
q-23 -16 -44.5 -34.5t-39.5 -39.5l-72 72q38 41 83 73zM584 168q27 -13 53.5 -21.5t52.5 -13.5l-39 -96q-26 7 -52.5 15.5t-52.5 21.5zM380 414q15 -58 43 -104l-96 -39q-26 45 -41 104zM456 265q18 -23 40 -41t45 -32l-74 -74q-44 29 -84 74z" />
    <glyph glyph-name="ma.sub.001" unicode="&#x1039;&#x1019;" horiz-adv-x="1171" 
d="M997 -426q0 -167 -122.5 -270t-290.5 -103q-187 0 -323 143l-11 12q-76 99 -76 218q0 217 216 340l35 11q62 0 76 -80q0 -33 -40 -57q-61 -42 -98.5 -102t-37.5 -111l7 -46q107 93 252 93q158 0 255 -93l7 46q0 124 -136 208q-40 17 -40 61q0 74 73 83l32 -9
q110 -57 166 -144.5t56 -199.5zM754 -596q-56 69 -170 69q-109 0 -165 -70q63 -54 165 -54q103 0 170 55zM811 198q23 16 44.5 34t39.5 40l66 -65q-39 -42 -82 -76zM925 311q32 47 48 100l89 -36q-20 -52 -51 -100zM898 766q-18 21 -39 39.5t-44 35.5l70 69q45 -33 82 -75z
M974 628q-17 55 -48 100l90 38q31 -48 49 -100zM669 135q27 6 53 16t51 24l37 -89q-47 -27 -103 -44zM777 865q-48 25 -104 39l38 94q27 -8 53 -18t50 -24zM990 519q0 14 -1 28t-3 28h100q2 -14 3.5 -28t1.5 -28t-2 -27.5t-4 -27.5h-100q2 14 3.5 27.5t1.5 27.5zM572 123
q14 0 27.5 1t27.5 3v-102q-27 -3 -55 -3q-15 0 -28.5 0.5t-27.5 1.5v102q27 -3 56 -3zM50 524q0 13 0.5 26t1.5 25h102q-3 -24 -3 -51q0 -32 3 -60h-102q-2 14 -2 29v31zM572 917q-15 0 -28.5 -1t-27.5 -3v102q27 4 56 4q28 0 55 -4v-102q-14 2 -27.5 3t-27.5 1zM471 905
q-27 -7 -53 -16t-52 -22l-38 93q25 13 51.5 22t52.5 17zM209 726q-14 -23 -25.5 -48t-19.5 -54l-94 40q8 27 19.5 53t25.5 49zM325 843q-23 -16 -44.5 -34.5t-39.5 -39.5l-72 72q38 41 83 73zM367 168q27 -13 53.5 -21.5t52.5 -13.5l-39 -96q-26 7 -52.5 15.5t-52.5 21.5z
M163 414q15 -58 43 -104l-96 -39q-26 45 -41 104zM239 265q18 -23 40 -41t45 -32l-74 -74q-44 29 -84 74z" />
    <glyph glyph-name="la.sub.001" unicode="&#x1039;&#x101c;" horiz-adv-x="1574" 
d="M1494 -443q0 -133 -118 -254q-132 -107 -277 -107q-162 0 -288 111q-49 42 -71 85.5t-37.5 100.5t-27.5 120q-18 40 -48 84q-74 70 -186 70q-110 0 -166 -54q-72 -51 -72 -156q0 -79 72 -137q91 -75 191 -75q17 0 50 12q56 -34 56 -88q0 -37 -92 -63l-46 -6
q-158 0 -271 106t-113 251q0 160 122 264q111 96 256 105q186 0 282 -102q53 -47 80 -114l30 -79q35 -171 107 -222q60 -51 172 -51q122 0 186 66q56 62 56 133q0 82 -68 141q-95 83 -211 78q-78 3 -86 72q1 47 22 65l28 11l40 2q196 -11 312 -114t116 -255zM1045 198
q23 16 44.5 34t39.5 40l66 -65q-39 -42 -82 -76zM1159 311q32 47 48 100l89 -36q-20 -52 -51 -100zM1132 766q-18 21 -39 39.5t-44 35.5l70 69q45 -33 82 -75zM1208 628q-17 55 -48 100l90 38q31 -48 49 -100zM903 135q27 6 53 16t51 24l37 -89q-47 -27 -103 -44zM1011 865
q-48 25 -104 39l38 94q27 -8 53 -18t50 -24zM1224 519q0 14 -1 28t-3 28h100q2 -14 3.5 -28t1.5 -28t-2 -27.5t-4 -27.5h-100q2 14 3.5 27.5t1.5 27.5zM806 123q14 0 27.5 1t27.5 3v-102q-27 -3 -55 -3q-15 0 -28.5 0.5t-27.5 1.5v102q27 -3 56 -3zM284 524q0 13 0.5 26
t1.5 25h102q-3 -24 -3 -51q0 -32 3 -60h-102q-2 14 -2 29v31zM806 917q-15 0 -28.5 -1t-27.5 -3v102q27 4 56 4q28 0 55 -4v-102q-14 2 -27.5 3t-27.5 1zM705 905q-27 -7 -53 -16t-52 -22l-38 93q25 13 51.5 22t52.5 17zM443 726q-14 -23 -25.5 -48t-19.5 -54l-94 40
q8 27 19.5 53t25.5 49zM559 843q-23 -16 -44.5 -34.5t-39.5 -39.5l-72 72q38 41 83 73zM601 168q27 -13 53.5 -21.5t52.5 -13.5l-39 -96q-26 7 -52.5 15.5t-52.5 21.5zM397 414q15 -58 43 -104l-96 -39q-26 45 -41 104zM473 265q18 -23 40 -41t45 -32l-74 -74q-44 29 -84 74
z" />
    <glyph glyph-name="sa.sub.001" unicode="&#x1039;&#x101e;" horiz-adv-x="1557" 
d="M1477 -439q0 -158 -125.5 -261.5t-286.5 -103.5q-150 0 -290 102q-33 25 -42 47q-107 -149 -338 -149q-208 0 -323 126q-20 45 -20 69q0 67 66 67l53 -22l22 -17q81 -72 202 -72q99 0 181 56t82 146q0 106 -78.5 164.5t-184.5 58.5q-49 0 -115.5 -26t-94.5 -58
q-35 -23 -69 -23q-66 0 -66 59q6 38 25 70q148 126 320 126q166 0 289 -103t123 -267q14 -96 71 -133q99 -66 187 -66q110 0 189 65q68 58 68 145q0 103 -89 161q-83 52 -194 52l-16 -2q-15 -17 -40 -17q-54 0 -54 81q0 37 28 74q40 15 73 15q202 0 324.5 -103.5
t122.5 -260.5zM1030 198q23 16 44.5 34t39.5 40l66 -65q-39 -42 -82 -76zM1144 311q32 47 48 100l89 -36q-20 -52 -51 -100zM1117 766q-18 21 -39 39.5t-44 35.5l70 69q45 -33 82 -75zM1193 628q-17 55 -48 100l90 38q31 -48 49 -100zM888 135q27 6 53 16t51 24l37 -89
q-47 -27 -103 -44zM996 865q-48 25 -104 39l38 94q27 -8 53 -18t50 -24zM1209 519q0 14 -1 28t-3 28h100q2 -14 3.5 -28t1.5 -28t-2 -27.5t-4 -27.5h-100q2 14 3.5 27.5t1.5 27.5zM791 123q14 0 27.5 1t27.5 3v-102q-27 -3 -55 -3q-15 0 -28.5 0.5t-27.5 1.5v102
q27 -3 56 -3zM269 524q0 13 0.5 26t1.5 25h102q-3 -24 -3 -51q0 -32 3 -60h-102q-2 14 -2 29v31zM791 917q-15 0 -28.5 -1t-27.5 -3v102q27 4 56 4q28 0 55 -4v-102q-14 2 -27.5 3t-27.5 1zM690 905q-27 -7 -53 -16t-52 -22l-38 93q25 13 51.5 22t52.5 17zM428 726
q-14 -23 -25.5 -48t-19.5 -54l-94 40q8 27 19.5 53t25.5 49zM544 843q-23 -16 -44.5 -34.5t-39.5 -39.5l-72 72q38 41 83 73zM586 168q27 -13 53.5 -21.5t52.5 -13.5l-39 -96q-26 7 -52.5 15.5t-52.5 21.5zM382 414q15 -58 43 -104l-96 -39q-26 45 -41 104zM458 265
q18 -23 40 -41t45 -32l-74 -74q-44 29 -84 74z" />
    <glyph glyph-name="a.sub.001" unicode="&#x1039;&#x1021;" horiz-adv-x="1311" 
d="M1231 -445q0 -71 -19 -125.5t-54.5 -95.5t-83 -71.5t-104.5 -53.5q-53 -20 -99.5 -19.5t-98.5 11.5q-16 5 -30.5 9t-27.5 12t-21 22t-8 38q0 176 178 263q43 11 79.5 14t67 0.5t53.5 -8.5t25 -6q5 49 -19 110q-12 28 -33 49.5t-46.5 36.5t-55 22.5t-59.5 7.5
q-18 0 -36.5 -3.5t-40 -12.5t-47.5 -25t-55 -39q-6 -16 -11 -37.5t-12.5 -42.5t-19 -40.5t-21.5 -27.5q48 -48 48 -161q-35 -198 -318 -198q-234 0 -308 182l-4 24q0 29 18 46t53 23q53 0 70 -40q13 -28 30.5 -45.5t39 -27t47 -13.5t54.5 -4q158 0 178 75q-2 11 -10 24
t-19.5 24t-24 18t-23.5 8l-50 -3q-60 -2 -71 69q0 75 69 75h54q38 5 57 19.5t20 31.5q-7 45 -51 71t-129 26q-33 0 -60 -2t-47.5 -10t-35.5 -24.5t-24 -43.5q-7 -59 -68 -59q-69 0 -76 81q32 199 311 199q191 0 264 -86q45 39 111.5 65.5t136.5 26.5q40 0 81.5 -11t79.5 -31
t71.5 -48.5t58.5 -64.5q32 -47 49 -99t17 -105zM1035 -590q-21 8 -54.5 9.5t-62 -9.5t-50 -34.5t-29.5 -45.5q19 -4 50 1t59 17.5t52.5 31.5t34.5 30zM923 198q23 16 44.5 34t39.5 40l66 -65q-39 -42 -82 -76zM1037 311q32 47 48 100l89 -36q-20 -52 -51 -100zM1010 766
q-18 21 -39 39.5t-44 35.5l70 69q45 -33 82 -75zM1086 628q-17 55 -48 100l90 38q31 -48 49 -100zM781 135q27 6 53 16t51 24l37 -89q-47 -27 -103 -44zM889 865q-48 25 -104 39l38 94q27 -8 53 -18t50 -24zM1102 519q0 14 -1 28t-3 28h100q2 -14 3.5 -28t1.5 -28t-2 -27.5
t-4 -27.5h-100q2 14 3.5 27.5t1.5 27.5zM684 123q14 0 27.5 1t27.5 3v-102q-27 -3 -55 -3q-15 0 -28.5 0.5t-27.5 1.5v102q27 -3 56 -3zM162 524q0 13 0.5 26t1.5 25h102q-3 -24 -3 -51q0 -32 3 -60h-102q-2 14 -2 29v31zM684 917q-15 0 -28.5 -1t-27.5 -3v102q27 4 56 4
q28 0 55 -4v-102q-14 2 -27.5 3t-27.5 1zM583 905q-27 -7 -53 -16t-52 -22l-38 93q25 13 51.5 22t52.5 17zM321 726q-14 -23 -25.5 -48t-19.5 -54l-94 40q8 27 19.5 53t25.5 49zM437 843q-23 -16 -44.5 -34.5t-39.5 -39.5l-72 72q38 41 83 73zM479 168q27 -13 53.5 -21.5
t52.5 -13.5l-39 -96q-26 7 -52.5 15.5t-52.5 21.5zM275 414q15 -58 43 -104l-96 -39q-26 45 -41 104zM351 265q18 -23 40 -41t45 -32l-74 -74q-44 29 -84 74z" />
    <glyph glyph-name="kinzi.001" unicode="&#x1004;&#x103a;&#x1039;" horiz-adv-x="1171" 
d="M799 1246l-13 -34q-74 -121 -209 -121q-110 0 -187 69q-90 78 -90 204q0 103 69 182l20 15l-6 5q-42 70 -42 136q0 71 45 136q70 76 161 76q100 0 183 -78l14 -26l2 -17q0 -32 -23.5 -54t-54.5 -29q-30 0 -55 26l-30 20l-33 7q-37 0 -44 -15q-17 -15 -14 -45l2 -29
l38 -32l51 -21q106 0 186 -83l16 -41q0 -33 -22 -65q-21 -16 -56 -23q-38 0 -53 33q-18 24 -87 24t-91.5 -27.5t-22.5 -72.5q0 -64 37 -94q29 -30 81 -30q65 0 82 39q20 39 64 39q68 0 82 -74zM811 198q23 16 44.5 34t39.5 40l66 -65q-39 -42 -82 -76zM925 311q32 47 48 100
l89 -36q-20 -52 -51 -100zM898 766q-18 21 -39 39.5t-44 35.5l70 69q45 -33 82 -75zM974 628q-17 55 -48 100l90 38q31 -48 49 -100zM669 135q27 6 53 16t51 24l37 -89q-47 -27 -103 -44zM777 865q-48 25 -104 39l38 94q27 -8 53 -18t50 -24zM990 519q0 14 -1 28t-3 28h100
q2 -14 3.5 -28t1.5 -28t-2 -27.5t-4 -27.5h-100q2 14 3.5 27.5t1.5 27.5zM572 123q14 0 27.5 1t27.5 3v-102q-27 -3 -55 -3q-15 0 -28.5 0.5t-27.5 1.5v102q27 -3 56 -3zM50 524q0 13 0.5 26t1.5 25h102q-3 -24 -3 -51q0 -32 3 -60h-102q-2 14 -2 29v31zM572 917
q-15 0 -28.5 -1t-27.5 -3v102q27 4 56 4q28 0 55 -4v-102q-14 2 -27.5 3t-27.5 1zM471 905q-27 -7 -53 -16t-52 -22l-38 93q25 13 51.5 22t52.5 17zM209 726q-14 -23 -25.5 -48t-19.5 -54l-94 40q8 27 19.5 53t25.5 49zM325 843q-23 -16 -44.5 -34.5t-39.5 -39.5l-72 72
q38 41 83 73zM367 168q27 -13 53.5 -21.5t52.5 -13.5l-39 -96q-26 7 -52.5 15.5t-52.5 21.5zM163 414q15 -58 43 -104l-96 -39q-26 45 -41 104zM239 265q18 -23 40 -41t45 -32l-74 -74q-44 29 -84 74z" />
    <glyph glyph-name="ra.kinzi.001" unicode="&#x101b;&#x103a;&#x1039;" horiz-adv-x="1171" 
d="M867 1675q-35 -23 -88 10q-77 83 -185 83q-112 0 -186 -79q-46 -49 -60 -98q134 -11 242 -122q95 -99 115 -226q6 -54 -2 -91l-41 -45q-36 -20 -68 -19q-169 0 -287.5 121.5t-118.5 290.5q0 172 115.5 293.5t290.5 121.5q170 0 291 -125q32 -59 5 -90zM411 1313
q67 -68 142 -76q-10 64 -69 128q-67 71 -145 78q10 -68 72 -130zM811 198q23 16 44.5 34t39.5 40l66 -65q-39 -42 -82 -76zM925 311q32 47 48 100l89 -36q-20 -52 -51 -100zM898 766q-18 21 -39 39.5t-44 35.5l70 69q45 -33 82 -75zM974 628q-17 55 -48 100l90 38
q31 -48 49 -100zM669 135q27 6 53 16t51 24l37 -89q-47 -27 -103 -44zM777 865q-48 25 -104 39l38 94q27 -8 53 -18t50 -24zM990 519q0 14 -1 28t-3 28h100q2 -14 3.5 -28t1.5 -28t-2 -27.5t-4 -27.5h-100q2 14 3.5 27.5t1.5 27.5zM572 123q14 0 27.5 1t27.5 3v-102
q-27 -3 -55 -3q-15 0 -28.5 0.5t-27.5 1.5v102q27 -3 56 -3zM50 524q0 13 0.5 26t1.5 25h102q-3 -24 -3 -51q0 -32 3 -60h-102q-2 14 -2 29v31zM572 917q-15 0 -28.5 -1t-27.5 -3v102q27 4 56 4q28 0 55 -4v-102q-14 2 -27.5 3t-27.5 1zM471 905q-27 -7 -53 -16t-52 -22
l-38 93q25 13 51.5 22t52.5 17zM209 726q-14 -23 -25.5 -48t-19.5 -54l-94 40q8 27 19.5 53t25.5 49zM325 843q-23 -16 -44.5 -34.5t-39.5 -39.5l-72 72q38 41 83 73zM367 168q27 -13 53.5 -21.5t52.5 -13.5l-39 -96q-26 7 -52.5 15.5t-52.5 21.5zM163 414q15 -58 43 -104
l-96 -39q-26 45 -41 104zM239 265q18 -23 40 -41t45 -32l-74 -74q-44 29 -84 74z" />
    <glyph glyph-name="_622" unicode="&#x102e;&#x1036;" horiz-adv-x="15" 
d="M-70 1667q35 0 66.5 -13.5t55 -37t37 -55t13.5 -66.5t-13.5 -66.5t-37 -55t-55 -37t-66.5 -13.5t-66.5 13.5t-55 37t-37 55t-13.5 66.5t13.5 66.5t37 55t55 37t66.5 13.5zM-70 1446q20 0 34.5 14.5t14.5 34.5t-14.5 34.5t-34.5 14.5t-34.5 -14.5t-14.5 -34.5t14.5 -34.5
t34.5 -14.5zM-311 1499q0 -165 -123 -288.5t-287 -123.5q-167 0 -286.5 121t-119.5 291q0 172 116.5 293.5t289.5 121.5q170 0 290 -124.5t120 -290.5zM-460 1499q0 106 -76.5 187t-184.5 81q-112 0 -185 -78t-73 -190q0 -76 14 -96q99 101 231 101q78 0 144 -30.5
t108 -79.5q22 35 22 105zM-555 1296q-59 68 -172 76q-106 0 -165 -70q81 -68 171 -68q84 0 166 62z" />
    <glyph glyph-name="_623" unicode="&#x1032;&#x1036;" 
d="M-413 1310q0 -28 -22.5 -53t-52.5 -25q-19 0 -49 16l-499 383q-28 17 -28 58q0 29 22.5 53t49.5 24q22 0 47 -15l499 -382q33 -27 33 -59zM-380 1396q0 44 17 82.5t45.5 67t67 45.5t82.5 17t82.5 -17t67 -45.5t45.5 -67t17 -82.5t-17 -82.5t-45.5 -67t-67 -45.5
t-82.5 -17t-82.5 17t-67 45.5t-45.5 67t-17 82.5zM-256 1396q0 -37 25.5 -62.5t62.5 -25.5t62.5 25.5t25.5 62.5t-25.5 62.5t-62.5 25.5t-62.5 -25.5t-25.5 -62.5z" />
    <glyph glyph-name=".notdef" horiz-adv-x="978" 
d="M89 -11v1364h793v-1364h-793zM158 58h655v1226h-655v-1226zM300 1079q34 30 60 45q51 30 110 30q90 0 146 -47.5t56 -127.5q0 -48 -23 -96.5t-82 -124.5q-59 -74 -92 -121t-33 -88q0 -34 26 -135h-52q-36 100 -36 149q0 74 76.5 207t76.5 200q0 49 -28 76.5t-77 27.5
q-33 0 -60 -14q-23 -13 -68 -52v71zM362 320l54 55q14 12 26 12q14 0 29 -13l52 -57q12 -14 12 -26q0 -14 -12 -28l-53 -59q-16 -16 -28 -16q-15 0 -26 14l-58 66q-9 12 -9 24q0 13 13 28z" />
    <glyph glyph-name=".null" horiz-adv-x="0" 
 />
    <glyph glyph-name="nonmarkingreturn" horiz-adv-x="561" 
 />
    <glyph glyph-name="space" unicode=" " horiz-adv-x="561" 
 />
    <glyph glyph-name="uni1000" unicode="&#x1000;" horiz-adv-x="2160" 
d="M2015 513q0 -212 -157 -375q-81 -79 -185 -119.5t-239 -37.5q-22 3 -36.5 4.5t-43.5 10.5q-48 21 -48 72q0 77 74 77l28 -6l40 -10q188 0 303 118q53 48 81 120t28 146q0 164 -109.5 271t-265.5 107q-78 0 -145 -26.5t-124 -87.5q-47 -42 -73.5 -115.5t-38.5 -151.5
q0 -193 -62.5 -313.5t-190.5 -196.5q-20 -13 -37 -13q-33 0 -54 24.5t-21 53.5q0 46 36 63q80 49 124 133t55 191q0 196 -107 317.5t-270 121.5q-154 0 -266.5 -116.5t-112.5 -275.5q0 -100 52.5 -204t146.5 -168q38 -19 38 -56q0 -30 -23.5 -57t-61.5 -27l-34 12
q-130 88 -201 223.5t-71 276.5q0 219 154.5 380.5t378.5 161.5q148 0 271 -77t179 -183q24 51 79 106q81 78 177.5 117.5t201.5 39.5q213 0 371.5 -158t158.5 -373z" />
    <glyph glyph-name="uni1001" unicode="&#x1001;" horiz-adv-x="1227" 
d="M71 345q141 146 315 146q180 0 334 -139q53 -56 80 -118q118 99 118 264q0 167 -113.5 274.5t-279.5 107.5q-120 0 -191 -51q-29 -21 -101 -112q-20 -46 -69 -46q-83 0 -83 72q7 37 35 74q69 90 133 133q119 79 276 79q221 0 382 -151.5t161 -371.5q0 -222 -149 -379.5
t-368 -157.5q-119 0 -227.5 49.5t-175.5 116.5l-51 69l-40 66zM227 280q9 -16 34 -41q115 -118 290 -118q65 0 122 27q-19 58 -70 103q-95 80 -217 80q-125 0 -159 -51z" />
    <glyph glyph-name="uni1002" unicode="&#x1002;" horiz-adv-x="1265" 
d="M1100 504q0 -287 -186 -502q-19 -18 -55 -23q-71 0 -82 83q0 20 18 49q153 150 153 393q0 178 -106 277.5t-273 99.5q-172 -3 -247 -74t-99.5 -157.5t-24.5 -145.5q0 -241 156 -392q19 -20 21 -49q0 -33 -27 -58.5t-56 -25.5q-21 0 -55 23q-191 207 -191 502
q0 105 48 231t152 209.5t323 88.5q184 0 314 -86t174 -193t43 -250z" />
    <glyph glyph-name="uni1003" unicode="&#x1003;" horiz-adv-x="2156" 
d="M2005 506q0 -216 -155.5 -371.5t-371.5 -155.5q-204 0 -372 161l-46 50l-30 53q-56 -107 -181.5 -183.5t-269.5 -76.5q-180 0 -339 125q-172 135 -172 314q0 65 20 137q21 51 90 84q120 49 153 71t45 84q3 27 -35 58q-26 16 -67 20q-64 -4 -73 -34q0 -30 -27 -53.5
t-56 -23.5q-68 0 -68 80q19 178 221 182q142 -4 219 -106q39 -53 39 -130q0 -114 -105 -194q-55 -39 -162 -76q-27 -11 -37 -34l-12 -52q0 -94 114.5 -199.5t251.5 -105.5q165 0 275 131q101 120 101 292q0 219 -180 337q-50 47 -25 101q31 51 102 27q112 -66 180 -187
t68 -253l4 -55q21 -182 112 -275q112 -118 262 -118q149 0 265 116q75 74 99 187q10 37 10 73q0 165 -109 264q-53 66 -147.5 96.5t-218.5 -0.5q-74 0 -74 74q0 46 46 70q173 44 313 -11q111 -42 189 -118q154 -155 154 -375z" />
    <glyph glyph-name="uni1004" unicode="&#x1004;" horiz-adv-x="1218" 
d="M1017 200q-139 -231 -438 -221q-213 0 -369 156.5t-156 373.5q0 223 152 373t373 150q249 0 409 -184q13 -13 17 -42.5t-28 -60.5q-26 -17 -51.5 -17t-48.5 13q-116 139 -298 139q-158 0 -265.5 -105t-107.5 -266q0 -154 111 -266t262 -112q226 -8 316 162q46 76 115 34
q57 -45 7 -127z" />
    <glyph glyph-name="uni1005" unicode="&#x1005;" horiz-adv-x="1247" 
d="M1099 504q0 -213 -160 -369t-372 -156q-199 0 -368 154q-151 166 -151 376q0 225 150 374t373 149q224 0 376 -154t152 -374zM947 504q0 149 -109 265.5t-264 116.5q-69 1 -125 -19q175 -133 175 -363q0 -116 -51 -208t-125 -143q47 -22 119 -22q156 0 266 116
q114 96 114 257zM472 504q0 111 -36.5 169t-125.5 106q-110 -105 -110 -270q0 -157 110 -271q162 96 162 266z" />
    <glyph glyph-name="uni1006" unicode="&#x1006;" horiz-adv-x="2122" 
d="M1971 506q0 -218 -155.5 -372.5t-375.5 -154.5q-310 0 -442 257q-58 -107 -183 -182t-266 -75q-240 0 -406 186l-45 66q-34 37 -39 61l-8 26q0 38 23 65q146 138 307 130q108 -2 148 -24q193 -58 258 -261q141 94 141 262v39q0 148 -112.5 247.5t-266.5 99.5
q-189 0 -295 -137q-57 -55 -104 -55q-60 0 -60 60q0 58 86 133q62 58 127 92q116 58 246 58q307 0 449 -242q130 246 442 242q217 4 374 -150.5t157 -370.5zM1818 506q0 157 -111 265.5t-267 108.5q-141 0 -241.5 -85.5t-126.5 -219.5l-4 -58l4 -71q22 -133 123.5 -224.5
t244.5 -91.5q151 0 264.5 111.5t113.5 264.5zM655 150q-35 141 -175 197q-47 15 -105 15q-51 0 -82 -12t-70 -42l37 -41q120 -137 289 -137q62 0 106 20z" />
    <glyph glyph-name="uni1007" unicode="&#x1007;" horiz-adv-x="1268" 
d="M1119 305q0 -77 -80 -77q-33 0 -60 38l-65 94q-96 -62 -244 -62q-104 9 -176 73q-82 69 -82 170l9 57q54 146 233 146q59 0 106 -17q88 -37 161 -127l1 5q4 43 -18 91t-57 82q-119 106 -276 106q-230 0 -343 -230q-28 -65 -28 -141q0 -146 108 -270q115 -112 276 -112
q123 0 183 54q12 11 47 18q32 0 53 -21.5t28 -56.5q0 -35 -26 -56q-123 -90 -287 -90q-234 0 -384 159t-150 371q0 223 150 373t373 150q212 0 374 -141q115 -129 115 -275q-5 -97 -44 -144l90 -129zM847 474l-49 52q-61 49 -91 59q-15 7 -49 7q-91 1 -97 -57
q0 -28 32.5 -57t81.5 -38l64 -6q71 10 108 40z" />
    <glyph glyph-name="uni1008" unicode="&#x1008;" horiz-adv-x="1552" 
d="M1399 -469q0 -141 -108 -236q-104 -83 -247 -83q-141 0 -244 87q-117 96 -114 218v476q-51 -14 -121 -14q-199 0 -367 153q-150 165 -150 374q0 224 149.5 372.5t371.5 148.5t373.5 -153.5t151.5 -371.5q0 -212 -159 -368q-51 -50 -103 -81v-532q5 -56 71 -103
q74 -53 141 -53q79 0 143.5 46t64.5 120v1457q0 68 71 68q80 0 79 -68zM943 502q0 148 -108.5 264t-264.5 116q-79 3 -125 -17q176 -135 176 -363q0 -116 -50.5 -207.5t-124.5 -142.5q47 -22 119 -22q155 0 269 113q109 98 109 259zM470 502q0 110 -36.5 167.5t-124.5 105.5
q-110 -104 -110 -269q0 -156 110 -269q161 95 161 265z" />
    <glyph glyph-name="uni1009" unicode="&#x1009;" horiz-adv-x="2109" 
d="M1961 -594q0 -90 -57 -152.5t-144 -62.5h-1362q-175 0 -264.5 85.5t-89.5 268.5v636q0 106 82 104l60 -5q21 -7 60 -35q89 -112 263 -112q147 0 262 115t115 262q0 161 -107.5 262t-269.5 101q-165 0 -297 -135q-26 -20 -60 -24q-69 0 -69 81q0 30 15 48q160 189 411 189
q225 0 377 -150t152 -372q0 -219 -155 -376t-374 -157q-123 0 -201 25q-55 21 -109 65v-629q2 -17 38 -48q35 -46 161 -46h1362q42 0 42 92q0 85 75 85q62 0 76 -67z" />
    <glyph glyph-name="uni100A" unicode="&#x100a;" horiz-adv-x="2113" 
d="M1962 -595q0 -89 -57 -151.5t-144 -62.5h-1358q-149 -8 -246 66.5t-107 236.5v684q0 76 75 104q36 0 75 -18l22 -7q95 -131 292 -131q160 0 268 117.5t108 285.5q0 154 -108.5 249.5t-267.5 95.5q-196 0 -294 -130q-49 -71 -93 -71q-61 -2 -61 73q0 115 211 225
q111 56 237 56q215 0 359 -132q164 -146 164 -389q0 -110 65.5 -211t170.5 -141q70 -28 136 -28q154 0 266 114q74 74 97 191q11 36 11 75q0 256 -235 344q-89 36 -168 26l-42 -10l-31 -8q-73 12 -73 80q0 51 38 65l55 14l40 6l53 2q195 20 361 -144q157 -155 157 -375
q0 -218 -154.5 -374.5t-374.5 -156.5q-205 0 -375 157l-44 55l-26 47q-61 -105 -185.5 -180t-264.5 -75q-123 0 -192 25t-117 62l2 -629q1 -31 54 -67q45 -38 141 -26h1359q42 0 42 91q0 85 75 85q62 0 76 -67z" />
    <glyph glyph-name="uni100B" unicode="&#x100b;" horiz-adv-x="1352" 
d="M1273 -733q0 -71 -77 -76h-233q-72 0 -72 76v242q-129 -50 -303 -50q-238 0 -440 127q-34 19 -34 62v293q0 76 75 76q23 0 56 -18q121 -137 337 -137q144 0 273 92l36 26v84q-135 -101 -309 -101q-234 0 -389 178q-138 160 -138 361q0 226 151.5 375.5t375.5 149.5
q243 0 419 -194l-23 -66q-49 -49 -98 -30q-49 59 -136.5 98t-161.5 39q-160 0 -268 -105.5t-108 -266.5q0 -149 113.5 -262.5t262.5 -113.5q181 0 294 131l56 32l23 7q75 0 87 -90v-265q0 -30 -35 -62l-66 -48q-156 -116 -359 -116q-204 0 -317 63v-85q81 -50 229 -71
q40 -6 94 -6q184 0 267 53l64 42l42 14q81 0 81 -77v-304h154q70 0 77 -77z" />
    <glyph glyph-name="uni100C" unicode="&#x100c;" horiz-adv-x="1190" 
d="M1039 -456q0 -166 -84 -259.5t-267 -93.5l-420 2q-104 0 -165 93q-53 76 -53 184q0 203 149 284q76 46 163 46q139 0 248 -97q19 -19 21 -55q0 -79 -76 -79q-30 0 -53 26q-58 54 -140 54q-104 0 -148 -84q-13 -27 -13 -75q0 -146 67 -146h459q79 0 121 44.5t42 155.5v530
q-131 -99 -315 -99q-214 0 -366.5 157t-152.5 374q0 222 149.5 371.5t369.5 149.5q247 0 405 -187q11 -10 18 -50q0 -76 -71 -76q-23 0 -60 24q-115 136 -292 136q-158 0 -263 -103.5t-105 -264.5q0 -154 108.5 -267t259.5 -113q197 0 289 129l19 18q18 10 49 17l24 -8
q49 0 81 -104z" />
    <glyph glyph-name="uni100D" unicode="&#x100d;" horiz-adv-x="1282" 
d="M1128 -802l-355 2l-3 567l-102 -43q-70 -24 -143 -24q-134 0 -185 9q-110 21 -185 75l-94 74l-4 394q0 77 70 91q41 -7 63 -34l24 -51q107 -120 282 -120q163 0 271.5 112.5t108.5 276.5q0 163 -105 258t-275 95q-156 0 -277 -110l-43 -43q-22 -19 -42 -19q-33 0 -66 45
q-15 50 -5 66t48 53q150 155 385 155q223 -4 379 -142t156 -358q0 -219 -157.5 -380.5t-377.5 -161.5q-171 0 -288 82v-127q106 -89 309 -89q54 0 99.5 11t162.5 78q46 28 77 28q73 0 73 -87v-536h199v-147z" />
    <glyph glyph-name="uni100E" unicode="&#x100e;" horiz-adv-x="1251" 
d="M1101 522q0 -228 -156.5 -385.5t-380.5 -157.5q-168 0 -321 113q-162 119 -184 282q-9 69 2 121.5t45 88.5q6 15 39 43l17 15l145 67q46 29 57 89q0 20 -12.5 45t-68.5 29q-81 0 -81 -40q0 -75 -75 -75q-74 0 -74 76q11 81 75.5 136.5t145.5 57.5q117 0 202 -106
q39 -53 39 -130q0 -108 -106 -192q-59 -48 -113 -64l-46 -15l-37 -46l-11 -43v-14q19 -110 133 -198.5t229 -88.5q159 0 272.5 115.5t113.5 276.5q0 255 -189 365q-36 21 -36 59q0 69 73 81l34 -9q269 -164 269 -496z" />
    <glyph glyph-name="uni100F" unicode="&#x100f;" horiz-adv-x="2392" 
d="M2241 510q0 -272 -230 -427q-53 -33 -156 -74q-59 -22 -133 -22q-57 0 -79 6l-72 21q-43 10 -51 71q0 70 93 70q49 -17 109 -17q222 0 326 197q42 84 42 175q0 237 -197 334q-79 36 -175 36q-129 0 -212 -68l-75 -56l-44 -63q-47 -66 -47 -181q0 -68 4 -89l36 -77l9 -36
v-66q0 -104 -68.5 -177.5t-174.5 -73.5q-105 0 -174.5 72.5t-69.5 178.5v69l7 33q42 79 42 166q0 77 -53 181l-42 55l-68 59q-66 73 -221 73q-165 0 -263.5 -99.5t-98.5 -264.5q0 -181 153 -297l4 -6q108 -73 225 -73q47 0 84 15q85 0 99 -72q0 -47 -41 -66l-76 -18l-63 -10
q-153 0 -306 101q-120 76 -177 188t-57 238q0 312 276 457q113 56 239 56q94 0 154 -20t151 -76l56 -34q61 128 218 128q147 0 215 -128l56 34q160 94 305 94q266 0 425 -218q96 -133 96 -299zM1236 245v43q-28 40 -39 104l-12 123q0 99 51 203v75q0 36 -27 63.5t-64 29.5
q-74 4 -88 -94l-4 -79l28 -66q23 -59 23 -135q0 -117 -51 -215l4 -52q5 -105 89 -105q28 0 55.5 30t34.5 75z" />
    <glyph glyph-name="uni1010" unicode="&#x1010;" horiz-adv-x="2173" 
d="M2027 509q0 -211 -160 -370.5t-428 -159.5q-83 0 -83 74q0 78 83.5 78t156.5 24q123 40 199 134t76 220q0 161 -111 268t-274 107q-166 0 -263 -110q-49 -41 -81 -134q-19 -56 -40 -174q0 -204 -156.5 -345.5t-364.5 -141.5q-224 0 -380 156t-156 378q0 225 153.5 372
t382.5 147q312 0 454 -253q33 78 134 155q147 98 317 98q217 0 379 -151t162 -372zM956 534q0 146 -111.5 248t-263.5 102q-167 0 -275.5 -104t-108.5 -267q0 -158 114 -270t270 -112q153 0 264 122t111 281z" />
    <glyph glyph-name="uni1011" unicode="&#x1011;" horiz-adv-x="2146" 
d="M2000 509q0 -218 -156 -374t-373 -156q-219 0 -372 155q-53 54 -78 100q-25 -45 -80 -99q-155 -156 -373 -156q-219 0 -371 155.5t-152 374.5q0 223 151 373t372 150q218 0 373 -155q54 -52 79 -95q25 46 78 99q152 151 373 151q217 0 373 -154t156 -369zM1849 509
q0 151 -112.5 261t-265.5 110q-160 0 -266 -105t-106 -266q0 -157 108 -267.5t264 -110.5t267 112t111 266zM946 509q0 151 -112.5 261t-265.5 110q-159 0 -265 -105t-106 -266q0 -157 108 -267.5t263 -110.5q156 0 267 112t111 266z" />
    <glyph glyph-name="uni1012" unicode="&#x1012;" horiz-adv-x="1196" 
d="M1003 704q0 -132 -104 -202q96 -65 96 -248q-54 -275 -454 -275q-343 0 -442 259l-6 26q0 70 83 70q46 0 65 -41q44 -99 119 -132q61 -31 181 -31q269 0 305 155q0 47 -45 92.5t-96 56.5l-93 -1q-71 -4 -71 71q0 77 71 77h97q143 24 143 121l-6 23q-34 158 -305 158
q-135 0 -188 -21q-81 -31 -111 -132q-10 -63 -70 -63q-72 0 -79 90q28 201 266 257q77 16 182 16q160 0 279 -58q149 -75 175 -213z" />
    <glyph glyph-name="uni1013" unicode="&#x1013;" horiz-adv-x="1251" 
d="M1102 509q0 -218 -156 -374t-374 -156q-219 0 -371 155.5t-152 374.5q0 223 151 373t372 150q218 0 374 -154t156 -369zM950 509q0 151 -112.5 261t-265.5 110q-159 0 -265 -105t-106 -265l10 -96q7 -35 27 -67q117 152 332 152q220 0 339 -152q41 64 41 162zM810 225
q-89 123 -240 123q-150 0 -231 -126q92 -91 233 -91q143 0 238 94z" />
    <glyph glyph-name="uni1014" unicode="&#x1014;" horiz-adv-x="1248" 
d="M1072 326q0 -174 -104 -264q-35 -25 -116 -50q-49 -11 -78 -17v-740q0 -78 -79 -78q-29 0 -51 22t-22 56l2 734l-102 -5q-142 2 -208 20q-110 31 -172 98q-67 92 -67 199q0 83 46 157q41 57 98 83t121 26t126 -21.5t119 -60.5q64 -45 111 -128q33 -59 53 -117
q25 -69 27 -110q20 1 53 17q44 27 68 64t27 103q-7 48 -44 104t-85 83q-39 24 -82 35t-122 32q-82 22 -142.5 49.5t-99.5 92.5q-26 41 -26 100q0 77 59 143q77 78 200 78q61 0 110 -14t96 -54q64 -59 77 -77q10 -42 -15.5 -75.5t-72.5 -27.5q-22 0 -85 63q-36 29 -110 29
q-63 0 -91 -28q-16 -26 -16 -42l3 -19q11 -28 54 -48.5t106 -35t124 -29.5t109 -46q83 -51 136 -130t65 -171zM636 118q-1 32 -3.5 46.5t-12.5 31.5q-16 40 -58 101q-34 41 -54 60q-86 57 -172 62q-63 -5 -86 -43q-14 -25 -18.5 -45.5t-4.5 -35.5q0 -52 36 -98
q19 -25 102.5 -51t163.5 -26z" />
    <glyph glyph-name="uni1015" unicode="&#x1015;" horiz-adv-x="1253" 
d="M1107 523q0 -223 -156 -383.5t-378 -160.5q-219 0 -373 162.5t-154 381.5q0 146 75.5 280.5t197.5 220.5l40 9q70 0 78 -79q0 -35 -38 -59q-90 -54 -145.5 -157.5t-55.5 -214.5q0 -159 111.5 -275.5t263.5 -116.5q163 0 272.5 115.5t109.5 276.5q0 111 -55.5 214.5
t-145.5 156.5q-29 16 -34 56q-2 71 73 83l33 -9q130 -74 205.5 -211.5t75.5 -289.5z" />
    <glyph glyph-name="uni1016" unicode="&#x1016;" horiz-adv-x="1253" 
d="M203 522q0 -157 108.5 -274.5t263.5 -117.5q197 0 302 159q-89 27 -157 92q-117 104 -125 311q-4 180 141 318q29 22 51 18q148 -66 232.5 -204.5t84.5 -301.5q0 -219 -154.5 -381t-374.5 -162q-214 0 -368.5 162t-154.5 381q-4 51 2 108q24 224 219 378q64 52 109 -6
q50 -57 -9 -104t-99 -111q-70 -110 -71 -230v-35zM953 522q0 198 -156 327q-44 -44 -51 -150q-7 -64 26 -154q60 -101 170 -117q11 48 11 94z" />
    <glyph glyph-name="uni1017" unicode="&#x1017;" horiz-adv-x="1253" 
d="M1105 525q0 -220 -155.5 -383t-376.5 -163q-215 0 -370.5 163t-155.5 383q0 332 258 499l37 9q64 0 75 -90q-30 -46 33 -135q62 -62 123 -62q58 0 104 54.5t46 111.5l-6 31q0 90 71 90l34 -9q138 -70 210.5 -207.5t72.5 -291.5zM953 525q0 182 -107 310
q-14 -102 -93 -169t-180 -67q-210 0 -284 220q-90 -126 -90 -294q0 -158 109 -276t265 -118q162 0 271 115t109 279z" />
    <glyph glyph-name="uni1018" unicode="&#x1018;" horiz-adv-x="2099" 
d="M1953 502q0 -203 -157 -366t-408 -157l-51 3l-47 14q-46 24 -46 68q0 17 7 30.5t20 26.5q34 19 76 10l42 -4q182 0 300 114q74 74 100 187q8 38 8 74q0 158 -111 270t-268 112q-143 0 -261 -114q-52 -51 -80.5 -110.5t-28.5 -134.5q0 -243 -143.5 -394.5t-384.5 -151.5
q-248 0 -412 191q-62 71 -62 118q0 65 64 65q74 0 115 -82q117 -140 295 -140q163 0 271.5 105t108.5 266q0 156 -113 267t-267 111q-187 0 -289 -121l-28 -35q-16 -50 -68 -50q-77 0 -77 93q7 39 26 60l18 16q134 189 418 189q141 0 267 -75.5t185 -180.5l37 65l38 38
q159 153 373 153q217 0 375 -157t158 -373z" />
    <glyph glyph-name="uni1019" unicode="&#x1019;" horiz-adv-x="1253" 
d="M1105 525q0 -220 -155.5 -383t-376.5 -163q-215 0 -370.5 163t-155.5 383q0 316 273 499l38 9q70 0 78 -78q0 -36 -38 -60q-89 -56 -144 -159.5t-55 -209.5l10 -78l18 -61q122 170 346 170q236 0 357 -164q23 55 23 132q0 235 -203 370q-28 15 -33 56q-2 70 73 82l32 -9
q132 -77 207.5 -213t75.5 -286zM844 257q-102 150 -271 150q-84 0 -146 -38.5t-114 -117.5q102 -120 260 -120q172 0 271 126z" />
    <glyph glyph-name="uni101A" unicode="&#x101a;" horiz-adv-x="2150" 
d="M2000 506q0 -212 -157.5 -370t-367.5 -158q-211 0 -375 158q-26 27 -44 52t-33 52q-56 -110 -175 -183t-271 -73q-221 0 -374.5 159.5t-153.5 376.5q0 141 70 274.5t198 220.5l40 10q32 0 55.5 -23.5t23.5 -55.5q0 -38 -37 -59q-92 -59 -144 -163t-52 -204
q0 -159 109 -273.5t265 -114.5q152 0 263 110.5t111 260.5v17q0 129 -52 220q-39 71 -132 148q-29 36 -29 58q0 31 20.5 55t53.5 24l34 -10q127 -76 189.5 -193.5t62.5 -301.5q0 -73 28 -148.5t84 -126.5q53 -57 124 -86.5t141 -29.5q150 0 264 113q51 48 79.5 119t28.5 145
q0 161 -108 262q-54 59 -132 87t-165 28l-47 -6q-46 0 -70 20.5t-24 51.5q0 55 31.5 65.5t57.5 14.5t36 4q259 0 416.5 -157.5t157.5 -369.5z" />
    <glyph glyph-name="uni101B" unicode="&#x101b;" horiz-adv-x="1220" 
d="M1069 -656h129q72 0 79 -73q0 -75 -79 -80h-206q-69 4 -74 79v1190q0 198 -106.5 308t-266.5 110q-125 0 -237.5 -88.5t-129.5 -201.5q231 0 336 -113q128 -140 128 -313q0 -183 -97 -185q-218 -4 -368 150.5t-150 377.5q0 225 152 375.5t366 150.5q217 0 373 -155
q80 -73 117 -191q34 -102 34 -225v-1116zM502 116q3 74 -18 136q-70 191 -306 191q0 -48 30 -105q58 -127 186 -183q38 -26 108 -39z" />
    <glyph glyph-name="uni101C" unicode="&#x101c;" horiz-adv-x="2146" 
d="M2001 501q0 -207 -160.5 -368.5t-369.5 -161.5q-210 0 -373 158q-153 149 -153 337q0 76 -24 150q-58 174 -216 238q-77 29 -136 29q-160 0 -264 -109.5t-104 -272.5q0 -170 115 -274q111 -100 285 -100l70 14q64 0 78 -74q0 -47 -48 -68l-38 -10l-43 -9l-56 -2
q-205 -7 -362 149.5t-157 373.5t155.5 374.5t368.5 157.5q217 0 374 -155q104 -103 142 -298q0 -224 123 -341.5t263 -117.5q227 0 346 234q28 78 28 146q0 156 -109 266t-290 114l-44 -6l-30 -8q-72 0 -72 74q0 72 64 86l63 6q235 -4 399 -145q175 -152 175 -387z" />
    <glyph glyph-name="uni101D" unicode="&#x101d;" horiz-adv-x="1251" 
d="M1102 511q0 -218 -156 -374t-374 -156q-219 0 -371 155.5t-152 374.5q0 223 151 373t372 150q218 0 374 -154t156 -369zM950 511q0 151 -112.5 261t-265.5 110q-159 0 -265 -105t-106 -266q0 -157 108 -267.5t263 -110.5q156 0 267 112t111 266z" />
    <glyph glyph-name="uni101E" unicode="&#x101e;" horiz-adv-x="2056" 
d="M1910 520q0 -213 -157.5 -371.5t-372.5 -158.5q-206 0 -376 158l-45 55l-27 50q-151 -259 -451 -259q-280 0 -417 189q-11 15 -16 39q0 33 27 58q15 19 55 26q30 0 61 -33q105 -131 290 -131q145 0 260.5 114t115.5 289q0 152 -109.5 249t-266.5 97q-191 0 -294 -138
q-23 -19 -59 -26q-80 0 -80 77q0 15 20 53q163 186 413 186q201 0 346 -124t174 -322l4 -94q4 -137 111 -245q115 -118 264 -118q156 0 266 114.5t110 269.5q0 157 -108.5 265t-298.5 100l-51 -6q-80 0 -94 72q0 50 32 69l57 11l39 6l55 2q220 0 369 -147q154 -153 154 -376
z" />
    <glyph glyph-name="uni101F" unicode="&#x101f;" horiz-adv-x="2158" 
d="M2012 502q0 -215 -156 -373t-422 -156q-59 6 -85 21q-44 13 -44 59q0 71 98 78l45 -8q181 0 301 116q73 73 97 188q10 37 10 75q0 160 -109 270t-268 110q-144 0 -265 -114q-83 -76 -101 -178q0 -58 -8 -171q-2 -19 -20 -82q-38 -129 -128 -217q-191 -149 -392 -149
q-302 0 -438 233q-81 141 -81 298q0 140 50.5 272.5t139.5 226.5q20 23 51 23q74 0 85 -83q-5 -14 -22 -47q-148 -150 -148 -392q0 -190 107 -278q104 -101 258 -101q151 0 271 99q63 54 96 154q23 73 23 126q0 222 -161 392q-12 18 -16 47q0 83 82 83q19 0 53 -22l77 -105
l47 -94l27 34l39 42q145 153 374 153q223 -4 378 -159.5t155 -370.5z" />
    <glyph glyph-name="uni1020" unicode="&#x1020;" horiz-adv-x="1251" 
d="M1081 -600q0 -84 -55 -146.5t-141 -62.5h-446q-179 0 -271 92q-79 94 -79 262v398q0 76 73 76q23 0 54 -18q160 -148 338 -148q194 0 337 103l37 26v131q-132 -136 -374 -136q-214 0 -369 155t-155 374q0 220 151 373t373 153q250 0 413 -187q27 -28 32 -63
q0 -74 -76 -74q-30 0 -101 56q-80 68 -98 75q-80 40 -170 40q-162 0 -267.5 -104t-105.5 -269q0 -150 114 -263.5t259 -113.5q204 0 293 127l42 21l54 20q61 0 98.5 -15.5t37.5 -73.5v-265q0 -30 -35 -62l-65 -48q-176 -129 -425 -129q-98 0 -171 23q-83 19 -142 58v-240
l5 -107q0 -18 25 -50q31 -30 62.5 -42t105.5 -12h445q46 8 46 83l-11 16q-21 6 -35 -15l-35 -9q-63 0 -82 85q0 84 145 84q127 0 163 -127z" />
    <glyph glyph-name="uni1021" unicode="&#x1021;" horiz-adv-x="1958" 
d="M1811 519q0 -284 -232 -433q-58 -36 -153 -71.5t-157 -35.5q-74 4 -117 9t-74 29q-39 29 -46 77q0 251 258 377q84 34 160.5 28t203.5 -52l6 73q6 70 -15 127.5t-49 91.5q-108 151 -302 151q-128 0 -236 -78l-75 -59l-22 -51q0 -129 -101 -200q93 -64 93 -248
q-49 -275 -458 -275q-338 0 -443 259l-6 28q0 54 78 69q54 0 73 -42q45 -99 118 -132q58 -30 180 -30q276 0 311 154q0 44 -56.5 97.5t-99.5 51.5l-78 -1q-59 -7 -73 75q0 74 72 74h88q153 22 153 121q-24 181 -317 181q-166 0 -226 -41q-42 -25 -69 -112q-10 -63 -71 -63
q-74 0 -81 90q45 274 447 274q307 0 406 -151l25 24q18 13 64 44q154 83 300 82q122 1 237.5 -52.5t186.5 -161.5q97 -139 97 -298zM1600 307q-88 41 -152.5 41t-94.5 -14q-138 -41 -179 -201q55 -17 107 -9q114 7 218 83q48 36 101 100z" />
    <glyph glyph-name="uni1022" unicode="&#x1022;" horiz-adv-x="2157" 
d="M2005 506q0 -220 -154 -375q-78 -76 -189 -118q-140 -55 -313 -11q-46 24 -46 70q0 74 74 74q124 -31 218.5 -0.5t147.5 96.5q109 99 109 264q0 36 -10 73q-24 113 -99 187q-116 116 -265 116q-150 0 -262 -118q-91 -93 -112 -275l-4 -55q0 -132 -68 -253t-180 -187
q-71 -24 -102 27q-25 54 25 101q180 118 180 337q0 172 -101 292q-110 131 -275 131q-137 0 -251.5 -105.5t-114.5 -199.5l12 -52q10 -23 37 -34q107 -37 162 -76q105 -80 105 -194q0 -77 -39 -130q-77 -102 -219 -106q-202 4 -221 182q0 80 68 80q29 0 56 -23.5t27 -53.5
q9 -30 73 -34q41 4 67 20q38 31 35 58q-12 62 -45 84t-153 71q-69 33 -90 84q-20 72 -20 137q0 179 172 314q159 125 339 125q144 0 269.5 -76.5t181.5 -183.5l30 53l46 50q168 161 372 161q216 0 371.5 -155.5t155.5 -371.5z" />
    <glyph glyph-name="uni1023" unicode="&#x1023;" horiz-adv-x="2062" 
d="M1903 524q0 -186 -47 -291q-32 -72 -122 -161q-47 -43 -92 -43q-87 0 -94 79q0 30 18 41l58 46l61 60q72 73 72 269q0 126 -94 235.5t-259 118.5q-165 0 -263 -117q-43 -60 -69 -119q-36 -79 -27 -176q10 -128 -13 -173q-21 -30 -57 -32l-55 28q-13 21 -13 69v107
q0 171 -95 289q-93 125 -260 125q-150 0 -252.5 -111t-102.5 -262q0 -97 51 -194.5t135 -149.5q33 -17 35 -56q5 -74 -78 -81l-35 10q-256 175 -256 471q0 214 144.5 365.5t358.5 151.5q132 0 248 -72.5t176 -172.5q52 107 171 177t257 70q208 0 353.5 -147t145.5 -354z
M1497 -243q-9 48 -52 80q-64 50 -163 50q-79 0 -156 -50q-16 -11 -38 -43q-13 -27 -24 -75l-1 -139q-10 -58 -77 -49q-40 6 -54 43l6 151q0 70 -60.5 117t-160.5 47q-87 0 -152.5 -47.5t-65.5 -121.5q0 -106 110 -163q35 -15 35 -48q0 -56 -69 -64l-27 8q-79 40 -130.5 113
t-51.5 154q0 128 110 210q102 79 241 79q190 0 282 -116q10 18 41 40q117 78 244 78q139 0 244 -80t105 -205l-3 -56q-2 -38 -3.5 -90t2.5 -102t16.5 -88t38.5 -52q20 -12 39.5 -16.5t39.5 -6t42 -1.5t48 -2q29 -8 44 -25.5t14.5 -38t-16.5 -36.5t-47 -23q-33 3 -76.5 1.5
t-94.5 13.5l-61 24q-20 11 -37.5 24.5t-32.5 27.5q-29 26 -40 71.5t-13.5 98.5t0.5 109.5t3 107.5v14.5t0.5 31t0.5 31t0 13.5z" />
    <glyph glyph-name="uni1024" unicode="&#x1024;" horiz-adv-x="2568" 
d="M2416 -733q0 -76 -79 -76q-74 0 -74 76v1495q0 166 -136 305l-396 408q-21 81 -21 135q0 133 93 237q113 98 256 98q230 0 331 -204l10 -31q0 -74 -83 -74q-52 0 -63 46q-45 105 -199 105q-117 0 -177 -106q-9 -25 -15 -72v-39l11 -44q262 -228 350 -333
q190 -224 190 -431zM2010 -552l-8 -84q-4 -42 -33 -90l-7 -6q-58 -77 -184 -76l-1501 1q-98 8 -154 86.5t-52 176.5l5 55q69 293 506 293q420 0 767 -108q55 -12 55 -71q0 -74 -101 -74q-199 59 -345 78q-162 20 -376 20q-329 0 -359 -160q0 -62 19.5 -103t34.5 -42l1560 1
q25 32 20 104v1059q0 153 -108.5 260.5t-263.5 107.5q-149 0 -261.5 -109.5t-112.5 -307.5q0 -321 -258 -475l-35 -11q-73 0 -73 74q0 47 32 65q87 56 134 154.5t47 217.5q0 164 -109.5 278t-266.5 114q-159 0 -267.5 -116.5t-108.5 -275.5q0 -226 198 -372q34 -17 36 -59
q0 -31 -21.5 -52t-60.5 -28l-37 11q-124 84 -197 218.5t-73 281.5q0 221 154.5 382t376.5 161q145 0 276 -80.5t177 -180.5q4 15 30 50l44 60q88 79 181 117t195 38q214 0 369.5 -155.5t155.5 -367.5v-1060z" />
    <glyph glyph-name="uni1025" unicode="&#x1025;" horiz-adv-x="1192" 
d="M52 178q32 104 81 104l24 8q31 -7 49 -17l19 -18q92 -129 289 -129q151 0 259.5 113t108.5 267q0 161 -105 264.5t-263 103.5q-177 0 -292 -136q-37 -24 -60 -24q-71 0 -71 76q7 40 18 50q158 187 405 187q220 0 369.5 -149.5t149.5 -371.5q0 -217 -152.5 -374
t-366.5 -157q-184 0 -315 99v-530q0 -111 42 -155.5t121 -44.5h459q67 0 67 146q0 48 -13 75q-44 84 -148 84q-82 0 -140 -54q-23 -26 -53 -26q-76 0 -76 79q2 36 21 55q109 97 248 97q87 0 163 -46q149 -81 149 -284q0 -108 -53 -184q-61 -93 -165 -92h-458
q-145 -3 -229 90.5t-84 259.5z" />
    <glyph glyph-name="uni1026" unicode="&#x1026;" horiz-adv-x="1192" 
d="M919 1499q0 -165 -123 -288.5t-287 -123.5q-167 0 -286.5 121t-119.5 291q0 172 116.5 293.5t289.5 121.5q170 0 290 -124.5t120 -290.5zM770 1499q0 106 -76.5 187t-184.5 81q-112 0 -185 -78t-73 -190q0 -76 14 -96q99 101 231 101q78 0 144 -30.5t108 -79.5
q22 35 22 105zM675 1296q-59 68 -172 76q-106 0 -165 -70q81 -68 171 -68q84 0 166 62zM52 178q32 104 81 104l24 8q31 -7 49 -17l19 -18q92 -129 289 -129q151 0 259.5 113t108.5 267q0 161 -105 264.5t-263 103.5q-177 0 -292 -136q-37 -24 -60 -24q-71 0 -71 76
q7 40 18 50q158 187 405 187q220 0 369.5 -149.5t149.5 -371.5q0 -217 -152.5 -374t-366.5 -157q-184 0 -315 99v-530q0 -111 42 -155.5t121 -44.5h459q67 0 67 146q0 48 -13 75q-44 84 -148 84q-82 0 -140 -54q-23 -26 -53 -26q-76 0 -76 79q2 36 21 55q109 97 248 97
q87 0 163 -46q149 -81 149 -284q0 -108 -53 -184q-61 -93 -165 -92h-459q-144 -3 -228 90.5t-84 259.5z" />
    <glyph glyph-name="uni1027" unicode="&#x1027;" horiz-adv-x="1212" 
d="M573 120q198 0 323 144q-41 56 -146 63q-64 7 -154 -26q-101 -60 -117 -170q48 -11 94 -11zM573 880q-46 0 -94 -11q16 -110 117 -170q90 -33 154 -26q105 7 151 63q-130 144 -328 144zM357 182q9 102 95 184q99 95 291 100q186 -3 300 -142q24 -44 1 -115
q-31 -71 -169.5 -155.5t-301.5 -84.5q-219 0 -381 154.5t-162 374.5q0 224 162 378.5t381 154.5q163 0 301 -84.5t172 -144.5q26 -72 -1 -121q-99 -137 -302 -146q-194 6 -310 131q-56 82 -72 155q-180 -122 -180 -319q0 -201 176 -320z" />
    <glyph glyph-name="uni1028" unicode="&#x1028;" horiz-adv-x="1252" 
d="M931 601q-18 77 -103 163q-111 89 -253 89q-150 0 -261 -111.5t-111 -264.5v-780q0 -155 111 -264.5t261 -109.5q159 0 266.5 108.5t107.5 265.5q0 72 74 72q77 -16 77 -72q0 -224 -150.5 -375.5t-374.5 -151.5q-214 0 -368.5 154.5t-154.5 372.5v780q0 220 154.5 375.5
t368.5 155.5q218 0 371 -158q106 -110 130 -247q1 -69 1.5 -139t-8.5 -137.5t-33 -131t-74 -118.5q-36 -42 -81.5 -63t-94.5 -24t-97.5 10.5t-90 40t-73.5 65t-48 85.5q-9 21 -11 47q-11 28 0 61q2 18 32 64l40 33l76 47q34 24 30 83q-6 18 -19.5 28.5t-54.5 20.5l-27 -4
q-77 -27 -64 -63q24 -73 -46 -96q-72 -23 -96 48q-16 81 28.5 154t120.5 97l53 13q65 19 173 -47q52 -37 78 -110q36 -103 -61 -202q-22 -20 -65 -50l-39 -31l-14 -36q1 -22 16 -44.5t39 -39t53.5 -24t60.5 -2.5t59.5 24t50.5 55q23 38 32.5 85t12 97.5t0 102.5t-3.5 99z
" />
    <glyph glyph-name="uni1029" unicode="&#x1029;" horiz-adv-x="2355" 
d="M1998 1696q-84 65 -175 65h-1338q-136 0 -214 -81.5t-78 -235.5l-2 -1786q0 -144 92 -229q65 -59 96.5 -72t109.5 -13h1009q155 0 230 92q79 80 79 212v424q0 73 76 73q77 0 77 -73v-424q0 -102 -28.5 -174t-91 -141t-138.5 -105q-83 -37 -204 -37h-1009q-185 0 -317 134
t-132 333v1786q0 226 109 329q118 141 336 141h1338q102 0 200 -52q13 -7 35 -21zM2200 509q0 -213 -157.5 -371.5t-372.5 -158.5q-206 0 -376 158l-45 55l-27 50q-151 -259 -451 -259q-280 0 -417 189q-11 15 -16 39q0 33 27 58q15 19 55 26q30 0 61 -33q105 -131 290 -131
q145 0 260.5 114t115.5 289q0 152 -109.5 249t-266.5 97q-191 0 -294 -138q-23 -19 -59 -26q-80 0 -80 77q0 15 20 53q163 186 413 186q201 0 346 -124t174 -322l4 -94q4 -137 111 -245q115 -118 264 -118q156 0 266 114.5t110 269.5q0 157 -108.5 265t-298.5 100l-51 -6
q-80 0 -94 72q0 50 32 69l57 11l39 6l55 2q220 0 369 -147q154 -153 154 -376z" />
    </font>
</defs>
</svg>
